<svg width="178" height="190" viewBox="0 0 178 190" fill="none" xmlns="http://www.w3.org/2000/svg">
<path d="M28.8059 11.544C27.9899 11.544 27.1419 11.816 26.3899 12.52L27.0299 8.904H31.8939V7.848H26.1179L25.1099 13.608L26.2299 13.912C26.7899 13.096 27.6059 12.568 28.6779 12.568C30.2939 12.568 31.2539 13.752 31.2539 15.224C31.2539 16.744 30.1979 18.072 28.5499 18.072C27.0939 18.072 26.0859 17.08 25.8459 15.736L24.7579 15.912C25.0779 17.704 26.5339 19.128 28.5499 19.128C30.7739 19.128 32.4219 17.336 32.4219 15.224C32.4219 13.176 30.9019 11.544 28.8059 11.544ZM37.74 19.16C40.284 19.16 41.18 16.504 41.18 13.448C41.18 10.392 40.268 7.688 37.628 7.688C34.732 7.688 34.172 10.776 34.172 13.432C34.172 16.088 34.764 19.16 37.74 19.16ZM37.708 18.104C35.676 18.104 35.308 15.784 35.308 13.432C35.308 11.032 35.676 8.744 37.628 8.744C39.5 8.744 39.996 10.856 39.996 13.432C39.996 15.96 39.516 18.104 37.708 18.104ZM46.7556 19.16C49.2996 19.16 50.1956 16.504 50.1956 13.448C50.1956 10.392 49.2836 7.688 46.6436 7.688C43.7476 7.688 43.1876 10.776 43.1876 13.432C43.1876 16.088 43.7796 19.16 46.7556 19.16ZM46.7236 18.104C44.6916 18.104 44.3236 15.784 44.3236 13.432C44.3236 11.032 44.6916 8.744 46.6436 8.744C48.5156 8.744 49.0116 10.856 49.0116 13.432C49.0116 15.96 48.5316 18.104 46.7236 18.104ZM62.6727 14.168H65.3607V14.52C65.3607 17.064 63.6807 18.072 61.7607 18.072C58.9927 18.072 57.8247 16.008 57.8247 13.352C57.8247 10.6 59.1527 8.776 61.8407 8.776C63.6967 8.776 64.8167 9.624 65.3767 11.144L66.4327 10.744C65.6967 8.824 64.1927 7.688 61.8407 7.688C58.4167 7.688 56.6887 10.088 56.6887 13.4C56.6887 16.728 58.4327 19.16 61.6807 19.16C63.3927 19.16 64.7527 18.488 65.3607 17.256L65.5207 19H66.4327V13.24H62.6727V14.168ZM69.6747 19H73.4347C75.7227 19 77.0027 17.88 77.0027 15.88C77.0027 14.392 76.2827 13.4 74.9547 13.064C75.8987 12.664 76.4267 11.784 76.4267 10.632C76.4267 8.872 75.1947 7.848 73.0987 7.848H69.6747V19ZM70.8107 12.712V8.904H73.0987C74.4907 8.904 75.2907 9.608 75.2907 10.824C75.2907 11.992 74.5547 12.712 73.3227 12.712H70.8107ZM70.8107 17.944V13.704H73.6587C75.0507 13.704 75.8507 14.472 75.8507 15.784C75.8507 17.176 74.9547 17.944 73.3547 17.944H70.8107ZM84.2529 19H87.2609C90.9569 19 92.9729 17.064 92.9729 13.512C92.9729 9.912 90.9089 7.848 87.2769 7.848H84.2529V19ZM85.3889 17.944V8.904H87.2609C90.2849 8.904 91.8209 10.44 91.8209 13.464C91.8209 16.472 90.2849 17.944 87.1649 17.944H85.3889ZM95.3826 9.48H96.6626V7.848H95.3826V9.48ZM95.4786 19H96.5826V11.112H95.4786V19ZM101.878 19.128C103.398 19.128 104.71 18.328 104.71 16.728C104.71 13.736 100.15 14.92 100.15 13.048C100.15 12.36 100.774 11.96 101.75 11.96C102.726 11.96 103.35 12.408 103.734 13.112L104.614 12.632C104.07 11.512 103.046 10.984 101.782 10.984C100.198 10.984 99.0782 11.832 99.0782 13.208C99.0782 16.008 103.622 14.696 103.622 16.792C103.622 17.624 102.934 18.152 101.862 18.152C100.63 18.152 99.8622 17.464 99.5742 16.648L98.6462 17.064C99.0622 18.328 100.326 19.128 101.878 19.128ZM106.947 19H108.051V16.68L109.859 14.76L112.611 19H113.923L110.611 14.072L113.475 11.112H111.987L108.051 15.288V7.848H106.947V19ZM123.289 19.16C125.593 19.16 126.889 17.96 126.889 16.088C126.889 14.536 126.185 13.64 123.705 12.696C121.945 12.024 121.177 11.48 121.177 10.456C121.177 9.512 122.009 8.712 123.177 8.712C124.137 8.712 124.953 9.224 125.433 10.088L126.393 9.496C125.721 8.312 124.617 7.688 123.209 7.688C121.321 7.688 120.041 8.808 120.041 10.504C120.041 11.96 120.825 12.76 123.081 13.608C125.049 14.36 125.737 14.984 125.737 16.184C125.737 17.288 124.921 18.136 123.305 18.136C121.801 18.136 120.713 17.224 120.505 15.784L119.369 16.056C119.673 17.928 121.225 19.16 123.289 19.16ZM132.456 10.968C131.336 10.968 130.44 11.4 129.848 12.168V11.112H128.744V22.264H129.848V17.944C130.424 18.68 131.304 19.128 132.456 19.128C134.76 19.128 135.96 17.4 135.96 15.048C135.96 12.584 134.648 10.968 132.456 10.968ZM132.296 18.152C130.632 18.152 129.752 16.84 129.752 15.048C129.752 13.176 130.712 11.944 132.296 11.944C133.896 11.944 134.856 13.176 134.856 15.048C134.856 16.84 133.976 18.152 132.296 18.152ZM140.98 10.984C139.636 10.984 138.612 11.496 137.764 12.6L138.564 13.272C139.204 12.392 139.972 11.96 140.964 11.96C142.292 11.96 143.012 12.712 143.012 14.088V14.456H141.396C139.844 14.456 138.996 14.6 138.388 14.952C137.812 15.304 137.492 15.912 137.492 16.712C137.492 18.232 138.5 19.128 140.212 19.128C141.46 19.128 142.42 18.664 143.044 17.784L143.108 19H144.116V14.088C144.116 12.12 142.964 10.984 140.98 10.984ZM140.532 18.216C139.348 18.216 138.596 17.656 138.596 16.776C138.596 16.328 138.74 15.976 139.028 15.752C139.412 15.448 140.036 15.352 141.492 15.352H143.012V15.464C143.012 17.144 142.052 18.216 140.532 18.216ZM149.719 19.128C151.143 19.128 152.295 18.376 152.823 16.936L151.799 16.552C151.495 17.56 150.711 18.152 149.719 18.152C148.023 18.152 147.271 16.696 147.271 15.08C147.271 13.464 148.023 11.96 149.703 11.96C150.695 11.96 151.479 12.568 151.847 13.576L152.903 13.16C152.279 11.688 151.111 10.984 149.703 10.984C147.319 10.984 146.151 13 146.151 15.08C146.151 17.272 147.431 19.128 149.719 19.128ZM161.142 14.664C161.142 12.872 160.134 10.984 157.718 10.984C155.43 10.984 154.214 12.872 154.214 15.096C154.214 17.336 155.446 19.128 157.846 19.128C159.062 19.128 159.974 18.776 160.902 17.8L160.134 17.128C159.414 17.896 158.726 18.12 157.862 18.12C156.31 18.12 155.35 17.08 155.318 15.352H161.094C161.126 15.16 161.142 14.888 161.142 14.664ZM157.718 11.912C159.174 11.912 159.99 12.888 160.07 14.168C160.07 14.312 160.086 14.392 160.086 14.424H155.318C155.414 13.032 156.294 11.912 157.718 11.912Z" fill="#000B33"/>
<path d="M13.7319 8.2958C13.639 8.20207 13.5284 8.12768 13.4065 8.07691C13.2847 8.02614 13.154 8 13.0219 8C12.8899 8 12.7592 8.02614 12.6374 8.07691C12.5155 8.12768 12.4049 8.20207 12.3119 8.2958L4.86195 15.7558L1.73195 12.6158C1.63542 12.5226 1.52148 12.4492 1.39663 12.4C1.27177 12.3508 1.13845 12.3267 1.00427 12.329C0.870087 12.3314 0.737677 12.3601 0.614599 12.4136C0.491521 12.4671 0.380184 12.5443 0.286945 12.6408C0.193707 12.7373 0.120393 12.8513 0.0711888 12.9761C0.0219848 13.101 -0.00214566 13.2343 0.000175807 13.3685C0.00249727 13.5027 0.0312251 13.6351 0.0847186 13.7581C0.138212 13.8812 0.215424 13.9926 0.311945 14.0858L4.15195 17.9258C4.24491 18.0195 4.35551 18.0939 4.47737 18.1447C4.59923 18.1955 4.72993 18.2216 4.86195 18.2216C4.99396 18.2216 5.12466 18.1955 5.24652 18.1447C5.36838 18.0939 5.47898 18.0195 5.57195 17.9258L13.7319 9.7658C13.8334 9.67216 13.9145 9.5585 13.9699 9.432C14.0253 9.30551 14.0539 9.1689 14.0539 9.0308C14.0539 8.8927 14.0253 8.75609 13.9699 8.62959C13.9145 8.50309 13.8334 8.38944 13.7319 8.2958Z" fill="#00BB98"/>
<path d="M25.8778 183H27.0138V177.848H32.6458V176.792H27.0138V172.904H33.4458V171.848H25.8778V183ZM38.5905 174.984C37.7905 174.984 36.8305 175.256 36.2545 176.296V175.112H35.1505V183H36.2545V178.6C36.2545 176.888 37.1505 175.976 38.3665 175.976C38.7025 175.976 39.0385 176.056 39.4065 176.216L39.9505 175.32C39.5185 175.08 39.0705 174.984 38.5905 174.984ZM47.1572 178.664C47.1572 176.872 46.1492 174.984 43.7332 174.984C41.4452 174.984 40.2292 176.872 40.2292 179.096C40.2292 181.336 41.4612 183.128 43.8612 183.128C45.0772 183.128 45.9892 182.776 46.9172 181.8L46.1492 181.128C45.4292 181.896 44.7412 182.12 43.8772 182.12C42.3252 182.12 41.3652 181.08 41.3332 179.352H47.1092C47.1412 179.16 47.1572 178.888 47.1572 178.664ZM43.7332 175.912C45.1892 175.912 46.0052 176.888 46.0852 178.168C46.0852 178.312 46.1012 178.392 46.1012 178.424H41.3332C41.4292 177.032 42.3092 175.912 43.7332 175.912ZM55.6728 178.664C55.6728 176.872 54.6648 174.984 52.2488 174.984C49.9608 174.984 48.7448 176.872 48.7448 179.096C48.7448 181.336 49.9768 183.128 52.3768 183.128C53.5928 183.128 54.5048 182.776 55.4328 181.8L54.6648 181.128C53.9448 181.896 53.2568 182.12 52.3928 182.12C50.8408 182.12 49.8808 181.08 49.8488 179.352H55.6248C55.6568 179.16 55.6728 178.888 55.6728 178.664ZM52.2488 175.912C53.7048 175.912 54.5208 176.888 54.6008 178.168C54.6008 178.312 54.6168 178.392 54.6168 178.424H49.8488C49.9448 177.032 50.8248 175.912 52.2488 175.912ZM66.9795 183.16C69.2035 183.16 70.8515 182.088 71.6835 180.056L70.5955 179.656C69.9715 181.256 68.7235 182.072 66.9795 182.072C64.4835 182.072 63.0435 180.376 63.0435 177.4C63.0435 174.44 64.4995 172.776 67.0595 172.776C68.8195 172.776 70.0035 173.544 70.5955 175.144L71.6515 174.744C70.8675 172.712 69.2995 171.688 67.0595 171.688C63.8435 171.688 61.9075 173.816 61.9075 177.4C61.9075 181 63.8115 183.16 66.9795 183.16ZM78.6112 175.112V178.744C78.6112 180.792 77.8272 182.152 76.2592 182.152C74.7552 182.152 74.5312 180.952 74.5312 179.672V175.112H73.4272V179.944C73.4272 181.896 74.2112 183.128 76.0032 183.128C77.0432 183.128 78.0512 182.712 78.6112 181.864V183H79.7152V175.112H78.6112ZM85.0188 183.128C86.5388 183.128 87.8508 182.328 87.8508 180.728C87.8508 177.736 83.2908 178.92 83.2908 177.048C83.2908 176.36 83.9148 175.96 84.8908 175.96C85.8668 175.96 86.4908 176.408 86.8748 177.112L87.7548 176.632C87.2108 175.512 86.1868 174.984 84.9228 174.984C83.3388 174.984 82.2188 175.832 82.2188 177.208C82.2188 180.008 86.7628 178.696 86.7628 180.792C86.7628 181.624 86.0748 182.152 85.0028 182.152C83.7708 182.152 83.0028 181.464 82.7148 180.648L81.7868 181.064C82.2028 182.328 83.4668 183.128 85.0188 183.128ZM93.352 181.944C93 182.056 92.696 182.12 92.424 182.12C91.8 182.12 91.448 181.768 91.448 181V176.04H93.352V175.112H91.448V172.232L90.344 173.064V175.112H89.032V176.04H90.344V181.144C90.344 182.536 91.112 183.128 92.168 183.128C92.536 183.128 92.952 183.048 93.368 182.92L93.352 181.944ZM98.4728 183.128C100.729 183.128 102.265 181.368 102.265 179.048C102.265 176.712 100.713 174.984 98.4728 174.984C96.2168 174.984 94.6968 176.712 94.6968 179.048C94.6968 181.384 96.2168 183.128 98.4728 183.128ZM98.4728 182.152C96.7928 182.152 95.8008 180.84 95.8008 179.048C95.8008 177.272 96.7768 175.96 98.4728 175.96C100.153 175.96 101.161 177.256 101.161 179.048C101.161 180.808 100.169 182.152 98.4728 182.152ZM112.638 174.984C111.438 174.984 110.558 175.496 110.046 176.504C109.646 175.464 108.83 174.984 107.726 174.984C106.846 174.984 106.046 175.288 105.55 176.072V175.112H104.478L104.494 183H105.598V179.208C105.598 177.416 106.03 175.96 107.566 175.96C108.942 175.96 109.342 177.128 109.342 178.44V183H110.446V179.208C110.446 177.432 110.878 175.96 112.478 175.96C114.206 175.96 114.206 177.704 114.206 178.376V183H115.31V178.072C115.31 176.232 114.526 174.984 112.638 174.984ZM122.768 183H125.776C129.472 183 131.488 181.064 131.488 177.512C131.488 173.912 129.424 171.848 125.792 171.848H122.768V183ZM123.904 181.944V172.904H125.776C128.8 172.904 130.336 174.44 130.336 177.464C130.336 180.472 128.8 181.944 125.68 181.944H123.904ZM137.082 183.128C139.338 183.128 140.874 181.368 140.874 179.048C140.874 176.712 139.322 174.984 137.082 174.984C134.826 174.984 133.306 176.712 133.306 179.048C133.306 181.384 134.826 183.128 137.082 183.128ZM137.082 182.152C135.402 182.152 134.41 180.84 134.41 179.048C134.41 177.272 135.386 175.96 137.082 175.96C138.762 175.96 139.77 177.256 139.77 179.048C139.77 180.808 138.778 182.152 137.082 182.152ZM151.248 174.984C150.048 174.984 149.168 175.496 148.656 176.504C148.256 175.464 147.44 174.984 146.336 174.984C145.456 174.984 144.656 175.288 144.16 176.072V175.112H143.088L143.104 183H144.208V179.208C144.208 177.416 144.64 175.96 146.176 175.96C147.552 175.96 147.952 177.128 147.952 178.44V183H149.056V179.208C149.056 177.432 149.488 175.96 151.088 175.96C152.816 175.96 152.816 177.704 152.816 178.376V183H153.92V178.072C153.92 176.232 153.136 174.984 151.248 174.984ZM159.371 174.984C158.027 174.984 157.003 175.496 156.155 176.6L156.955 177.272C157.595 176.392 158.363 175.96 159.355 175.96C160.683 175.96 161.403 176.712 161.403 178.088V178.456H159.787C158.235 178.456 157.387 178.6 156.779 178.952C156.203 179.304 155.883 179.912 155.883 180.712C155.883 182.232 156.891 183.128 158.603 183.128C159.851 183.128 160.811 182.664 161.435 181.784L161.499 183H162.507V178.088C162.507 176.12 161.355 174.984 159.371 174.984ZM158.923 182.216C157.739 182.216 156.987 181.656 156.987 180.776C156.987 180.328 157.131 179.976 157.419 179.752C157.803 179.448 158.427 179.352 159.883 179.352H161.403V179.464C161.403 181.144 160.443 182.216 158.923 182.216ZM165.101 173.48H166.381V171.848H165.101V173.48ZM165.197 183H166.301V175.112H165.197V183ZM172.925 174.984C171.789 174.984 170.829 175.464 170.317 176.264V175.112H169.213V183H170.317V179.464C170.317 177.24 171.181 175.96 172.669 175.96C173.853 175.96 174.397 176.744 174.397 178.44V183H175.501V178.168C175.501 176.072 174.621 174.984 172.925 174.984Z" fill="#000B33"/>
<path d="M13.7319 172.296C13.639 172.202 13.5284 172.128 13.4065 172.077C13.2846 172.026 13.1539 172 13.0219 172C12.8899 172 12.7592 172.026 12.6373 172.077C12.5155 172.128 12.4049 172.202 12.3119 172.296L4.86192 179.756L1.73192 176.616C1.6354 176.523 1.52146 176.449 1.3966 176.4C1.27175 176.351 1.13843 176.327 1.00424 176.329C0.870064 176.331 0.737655 176.36 0.614576 176.414C0.491498 176.467 0.380161 176.544 0.286922 176.641C0.193684 176.737 0.12037 176.851 0.0711659 176.976C0.0219619 177.101 -0.00216855 177.234 0.000152918 177.368C0.00247438 177.503 0.0312022 177.635 0.0846957 177.758C0.138189 177.881 0.215401 177.993 0.311922 178.086L4.15192 181.926C4.24489 182.02 4.35549 182.094 4.47735 182.145C4.59921 182.195 4.72991 182.222 4.86192 182.222C4.99393 182.222 5.12464 182.195 5.2465 182.145C5.36836 182.094 5.47896 182.02 5.57192 181.926L13.7319 173.766C13.8334 173.672 13.9144 173.559 13.9698 173.432C14.0252 173.306 14.0539 173.169 14.0539 173.031C14.0539 172.893 14.0252 172.756 13.9698 172.63C13.9144 172.503 13.8334 172.389 13.7319 172.296Z" fill="#00BB98"/>
<path d="M28.8058 52.544C27.9898 52.544 27.1418 52.816 26.3898 53.52L27.0298 49.904H31.8938V48.848H26.1178L25.1098 54.608L26.2298 54.912C26.7898 54.096 27.6058 53.568 28.6778 53.568C30.2938 53.568 31.2538 54.752 31.2538 56.224C31.2538 57.744 30.1978 59.072 28.5498 59.072C27.0938 59.072 26.0858 58.08 25.8458 56.736L24.7578 56.912C25.0778 58.704 26.5338 60.128 28.5498 60.128C30.7738 60.128 32.4218 58.336 32.4218 56.224C32.4218 54.176 30.9018 52.544 28.8058 52.544ZM42.243 60H43.395V55.728L47.651 48.848H46.291L42.803 54.624L39.331 48.848H37.987L42.243 55.728V60ZM54.4228 55.664C54.4228 53.872 53.4148 51.984 50.9988 51.984C48.7108 51.984 47.4948 53.872 47.4948 56.096C47.4948 58.336 48.7268 60.128 51.1268 60.128C52.3428 60.128 53.2548 59.776 54.1828 58.8L53.4148 58.128C52.6948 58.896 52.0068 59.12 51.1428 59.12C49.5908 59.12 48.6308 58.08 48.5988 56.352H54.3748C54.4068 56.16 54.4228 55.888 54.4228 55.664ZM50.9988 52.912C52.4548 52.912 53.2708 53.888 53.3508 55.168C53.3508 55.312 53.3668 55.392 53.3668 55.424H48.5988C48.6948 54.032 49.5748 52.912 50.9988 52.912ZM59.3865 51.984C58.0425 51.984 57.0185 52.496 56.1705 53.6L56.9705 54.272C57.6105 53.392 58.3785 52.96 59.3705 52.96C60.6985 52.96 61.4185 53.712 61.4185 55.088V55.456H59.8025C58.2505 55.456 57.4025 55.6 56.7945 55.952C56.2185 56.304 55.8985 56.912 55.8985 57.712C55.8985 59.232 56.9065 60.128 58.6185 60.128C59.8665 60.128 60.8265 59.664 61.4505 58.784L61.5145 60H62.5225V55.088C62.5225 53.12 61.3705 51.984 59.3865 51.984ZM58.9385 59.216C57.7545 59.216 57.0025 58.656 57.0025 57.776C57.0025 57.328 57.1465 56.976 57.4345 56.752C57.8185 56.448 58.4425 56.352 59.8985 56.352H61.4185V56.464C61.4185 58.144 60.4585 59.216 58.9385 59.216ZM68.653 51.984C67.853 51.984 66.893 52.256 66.317 53.296V52.112H65.213V60H66.317V55.6C66.317 53.888 67.213 52.976 68.429 52.976C68.765 52.976 69.101 53.056 69.469 53.216L70.013 52.32C69.581 52.08 69.133 51.984 68.653 51.984ZM79.2735 60.16C81.5775 60.16 82.8735 58.96 82.8735 57.088C82.8735 55.536 82.1695 54.64 79.6895 53.696C77.9295 53.024 77.1615 52.48 77.1615 51.456C77.1615 50.512 77.9935 49.712 79.1615 49.712C80.1215 49.712 80.9375 50.224 81.4175 51.088L82.3775 50.496C81.7055 49.312 80.6015 48.688 79.1935 48.688C77.3055 48.688 76.0255 49.808 76.0255 51.504C76.0255 52.96 76.8095 53.76 79.0655 54.608C81.0335 55.36 81.7215 55.984 81.7215 57.184C81.7215 58.288 80.9055 59.136 79.2895 59.136C77.7855 59.136 76.6975 58.224 76.4895 56.784L75.3535 57.056C75.6575 58.928 77.2095 60.16 79.2735 60.16ZM89.7987 52.112V55.744C89.7987 57.792 89.0147 59.152 87.4467 59.152C85.9427 59.152 85.7187 57.952 85.7187 56.672V52.112H84.6147V56.944C84.6147 58.896 85.3987 60.128 87.1907 60.128C88.2307 60.128 89.2387 59.712 89.7987 58.864V60H90.9027V52.112H89.7987ZM97.5343 51.968C96.4143 51.968 95.5183 52.4 94.9263 53.168V52.112H93.8223V63.264H94.9263V58.944C95.5023 59.68 96.3823 60.128 97.5343 60.128C99.8383 60.128 101.038 58.4 101.038 56.048C101.038 53.584 99.7263 51.968 97.5343 51.968ZM97.3743 59.152C95.7103 59.152 94.8303 57.84 94.8303 56.048C94.8303 54.176 95.7903 52.944 97.3743 52.944C98.9743 52.944 99.9343 54.176 99.9343 56.048C99.9343 57.84 99.0543 59.152 97.3743 59.152ZM107.034 51.968C105.914 51.968 105.018 52.4 104.426 53.168V52.112H103.322V63.264H104.426V58.944C105.002 59.68 105.882 60.128 107.034 60.128C109.338 60.128 110.538 58.4 110.538 56.048C110.538 53.584 109.226 51.968 107.034 51.968ZM106.874 59.152C105.21 59.152 104.33 57.84 104.33 56.048C104.33 54.176 105.29 52.944 106.874 52.944C108.474 52.944 109.434 54.176 109.434 56.048C109.434 57.84 108.554 59.152 106.874 59.152ZM115.91 60.128C118.166 60.128 119.702 58.368 119.702 56.048C119.702 53.712 118.15 51.984 115.91 51.984C113.654 51.984 112.134 53.712 112.134 56.048C112.134 58.384 113.654 60.128 115.91 60.128ZM115.91 59.152C114.23 59.152 113.238 57.84 113.238 56.048C113.238 54.272 114.214 52.96 115.91 52.96C117.59 52.96 118.598 54.256 118.598 56.048C118.598 57.808 117.606 59.152 115.91 59.152ZM125.372 51.984C124.572 51.984 123.612 52.256 123.036 53.296V52.112H121.932V60H123.036V55.6C123.036 53.888 123.932 52.976 125.148 52.976C125.484 52.976 125.82 53.056 126.188 53.216L126.732 52.32C126.3 52.08 125.852 51.984 125.372 51.984ZM132.039 58.944C131.687 59.056 131.383 59.12 131.111 59.12C130.487 59.12 130.135 58.768 130.135 58V53.04H132.039V52.112H130.135V49.232L129.031 50.064V52.112H127.719V53.04H129.031V58.144C129.031 59.536 129.799 60.128 130.855 60.128C131.223 60.128 131.639 60.048 132.055 59.92L132.039 58.944Z" fill="#000B33"/>
<path d="M13.7319 49.2958C13.639 49.2021 13.5284 49.1277 13.4065 49.0769C13.2846 49.0261 13.1539 49 13.0219 49C12.8899 49 12.7592 49.0261 12.6373 49.0769C12.5155 49.1277 12.4049 49.2021 12.3119 49.2958L4.86192 56.7558L1.73192 53.6158C1.6354 53.5226 1.52146 53.4492 1.3966 53.4C1.27175 53.3508 1.13843 53.3267 1.00424 53.329C0.870064 53.3314 0.737655 53.3601 0.614576 53.4136C0.491498 53.4671 0.380161 53.5443 0.286922 53.6408C0.193684 53.7373 0.12037 53.8513 0.0711659 53.9761C0.0219619 54.101 -0.00216855 54.2343 0.000152918 54.3685C0.00247438 54.5027 0.0312022 54.6351 0.0846957 54.7581C0.138189 54.8812 0.215401 54.9926 0.311922 55.0858L4.15192 58.9258C4.24489 59.0195 4.35549 59.0939 4.47735 59.1447C4.59921 59.1955 4.72991 59.2216 4.86192 59.2216C4.99393 59.2216 5.12464 59.1955 5.2465 59.1447C5.36836 59.0939 5.47896 59.0195 5.57192 58.9258L13.7319 50.7658C13.8334 50.6722 13.9144 50.5585 13.9698 50.432C14.0252 50.3055 14.0539 50.1689 14.0539 50.0308C14.0539 49.8927 14.0252 49.7561 13.9698 49.6296C13.9144 49.5031 13.8334 49.3894 13.7319 49.2958Z" fill="#00BB98"/>
<path d="M25.8778 142H29.6378C31.9258 142 33.2058 140.88 33.2058 138.88C33.2058 137.392 32.4858 136.4 31.1578 136.064C32.1018 135.664 32.6298 134.784 32.6298 133.632C32.6298 131.872 31.3978 130.848 29.3018 130.848H25.8778V142ZM27.0138 135.712V131.904H29.3018C30.6938 131.904 31.4938 132.608 31.4938 133.824C31.4938 134.992 30.7578 135.712 29.5258 135.712H27.0138ZM27.0138 140.944V136.704H29.8618C31.2538 136.704 32.0538 137.472 32.0538 138.784C32.0538 140.176 31.1578 140.944 29.5578 140.944H27.0138ZM38.2927 133.984C36.9487 133.984 35.9247 134.496 35.0767 135.6L35.8767 136.272C36.5167 135.392 37.2847 134.96 38.2767 134.96C39.6047 134.96 40.3247 135.712 40.3247 137.088V137.456H38.7087C37.1567 137.456 36.3087 137.6 35.7007 137.952C35.1247 138.304 34.8047 138.912 34.8047 139.712C34.8047 141.232 35.8127 142.128 37.5247 142.128C38.7727 142.128 39.7327 141.664 40.3567 140.784L40.4207 142H41.4287V137.088C41.4287 135.12 40.2767 133.984 38.2927 133.984ZM37.8447 141.216C36.6607 141.216 35.9087 140.656 35.9087 139.776C35.9087 139.328 36.0527 138.976 36.3407 138.752C36.7247 138.448 37.3487 138.352 38.8047 138.352H40.3247V138.464C40.3247 140.144 39.3647 141.216 37.8447 141.216ZM46.5032 142.128C48.0232 142.128 49.3352 141.328 49.3352 139.728C49.3352 136.736 44.7752 137.92 44.7752 136.048C44.7752 135.36 45.3992 134.96 46.3752 134.96C47.3512 134.96 47.9752 135.408 48.3592 136.112L49.2392 135.632C48.6952 134.512 47.6712 133.984 46.4072 133.984C44.8232 133.984 43.7032 134.832 43.7032 136.208C43.7032 139.008 48.2472 137.696 48.2472 139.792C48.2472 140.624 47.5592 141.152 46.4872 141.152C45.2552 141.152 44.4872 140.464 44.1992 139.648L43.2712 140.064C43.6872 141.328 44.9512 142.128 46.5032 142.128ZM51.4763 132.48H52.7563V130.848H51.4763V132.48ZM51.5723 142H52.6763V134.112H51.5723V142ZM58.5 142.128C59.924 142.128 61.076 141.376 61.604 139.936L60.58 139.552C60.276 140.56 59.492 141.152 58.5 141.152C56.804 141.152 56.052 139.696 56.052 138.08C56.052 136.464 56.804 134.96 58.484 134.96C59.476 134.96 60.26 135.568 60.628 136.576L61.684 136.16C61.06 134.688 59.892 133.984 58.484 133.984C56.1 133.984 54.932 136 54.932 138.08C54.932 140.272 56.212 142.128 58.5 142.128ZM71.336 142.16C73.64 142.16 74.936 140.96 74.936 139.088C74.936 137.536 74.232 136.64 71.752 135.696C69.992 135.024 69.224 134.48 69.224 133.456C69.224 132.512 70.056 131.712 71.224 131.712C72.184 131.712 73 132.224 73.48 133.088L74.44 132.496C73.768 131.312 72.664 130.688 71.256 130.688C69.368 130.688 68.088 131.808 68.088 133.504C68.088 134.96 68.872 135.76 71.128 136.608C73.096 137.36 73.784 137.984 73.784 139.184C73.784 140.288 72.968 141.136 71.352 141.136C69.848 141.136 68.76 140.224 68.552 138.784L67.416 139.056C67.72 140.928 69.272 142.16 71.336 142.16ZM80.3832 140.944C80.0312 141.056 79.7272 141.12 79.4552 141.12C78.8312 141.12 78.4792 140.768 78.4792 140V135.04H80.3832V134.112H78.4792V131.232L77.3752 132.064V134.112H76.0632V135.04H77.3752V140.144C77.3752 141.536 78.1432 142.128 79.1992 142.128C79.5672 142.128 79.9832 142.048 80.3992 141.92L80.3832 140.944ZM85.2302 133.984C83.8862 133.984 82.8622 134.496 82.0142 135.6L82.8142 136.272C83.4542 135.392 84.2222 134.96 85.2142 134.96C86.5422 134.96 87.2622 135.712 87.2622 137.088V137.456H85.6462C84.0942 137.456 83.2462 137.6 82.6382 137.952C82.0622 138.304 81.7422 138.912 81.7422 139.712C81.7422 141.232 82.7502 142.128 84.4622 142.128C85.7102 142.128 86.6702 141.664 87.2942 140.784L87.3582 142H88.3662V137.088C88.3662 135.12 87.2142 133.984 85.2302 133.984ZM84.7822 141.216C83.5982 141.216 82.8462 140.656 82.8462 139.776C82.8462 139.328 82.9902 138.976 83.2782 138.752C83.6622 138.448 84.2862 138.352 85.7422 138.352H87.2622V138.464C87.2622 140.144 86.3022 141.216 84.7822 141.216ZM94.3207 140.944C93.9687 141.056 93.6647 141.12 93.3927 141.12C92.7687 141.12 92.4167 140.768 92.4167 140V135.04H94.3207V134.112H92.4167V131.232L91.3127 132.064V134.112H90.0007V135.04H91.3127V140.144C91.3127 141.536 92.0807 142.128 93.1367 142.128C93.5047 142.128 93.9207 142.048 94.3367 141.92L94.3207 140.944ZM96.3357 132.48H97.6157V130.848H96.3357V132.48ZM96.4317 142H97.5357V134.112H96.4317V142ZM102.831 142.128C104.351 142.128 105.663 141.328 105.663 139.728C105.663 136.736 101.103 137.92 101.103 136.048C101.103 135.36 101.727 134.96 102.703 134.96C103.679 134.96 104.303 135.408 104.687 136.112L105.567 135.632C105.023 134.512 103.999 133.984 102.735 133.984C101.151 133.984 100.031 134.832 100.031 136.208C100.031 139.008 104.575 137.696 104.575 139.792C104.575 140.624 103.887 141.152 102.815 141.152C101.583 141.152 100.815 140.464 100.527 139.648L99.5993 140.064C100.015 141.328 101.279 142.128 102.831 142.128ZM111.164 140.944C110.812 141.056 110.508 141.12 110.236 141.12C109.612 141.12 109.26 140.768 109.26 140V135.04H111.164V134.112H109.26V131.232L108.156 132.064V134.112H106.844V135.04H108.156V140.144C108.156 141.536 108.924 142.128 109.98 142.128C110.348 142.128 110.764 142.048 111.18 141.92L111.164 140.944ZM113.179 132.48H114.459V130.848H113.179V132.48ZM113.275 142H114.379V134.112H113.275V142ZM120.203 142.128C121.627 142.128 122.779 141.376 123.307 139.936L122.283 139.552C121.979 140.56 121.195 141.152 120.203 141.152C118.507 141.152 117.755 139.696 117.755 138.08C117.755 136.464 118.507 134.96 120.187 134.96C121.179 134.96 121.963 135.568 122.331 136.576L123.387 136.16C122.763 134.688 121.595 133.984 120.187 133.984C117.803 133.984 116.635 136 116.635 138.08C116.635 140.272 117.915 142.128 120.203 142.128ZM127.8 142.128C129.32 142.128 130.632 141.328 130.632 139.728C130.632 136.736 126.072 137.92 126.072 136.048C126.072 135.36 126.696 134.96 127.672 134.96C128.648 134.96 129.272 135.408 129.656 136.112L130.536 135.632C129.992 134.512 128.968 133.984 127.704 133.984C126.12 133.984 125 134.832 125 136.208C125 139.008 129.544 137.696 129.544 139.792C129.544 140.624 128.856 141.152 127.784 141.152C126.552 141.152 125.784 140.464 125.496 139.648L124.568 140.064C124.984 141.328 126.248 142.128 127.8 142.128Z" fill="#000B33"/>
<path d="M13.7319 131.296C13.639 131.202 13.5284 131.128 13.4065 131.077C13.2846 131.026 13.1539 131 13.0219 131C12.8899 131 12.7592 131.026 12.6373 131.077C12.5155 131.128 12.4049 131.202 12.3119 131.296L4.86192 138.756L1.73192 135.616C1.6354 135.523 1.52146 135.449 1.3966 135.4C1.27175 135.351 1.13843 135.327 1.00424 135.329C0.870064 135.331 0.737655 135.36 0.614576 135.414C0.491498 135.467 0.380161 135.544 0.286922 135.641C0.193684 135.737 0.12037 135.851 0.0711659 135.976C0.0219619 136.101 -0.00216855 136.234 0.000152918 136.368C0.00247438 136.503 0.0312022 136.635 0.0846957 136.758C0.138189 136.881 0.215401 136.993 0.311922 137.086L4.15192 140.926C4.24489 141.02 4.35549 141.094 4.47735 141.145C4.59921 141.195 4.72991 141.222 4.86192 141.222C4.99393 141.222 5.12464 141.195 5.2465 141.145C5.36836 141.094 5.47896 141.02 5.57192 140.926L13.7319 132.766C13.8334 132.672 13.9144 132.559 13.9698 132.432C14.0252 132.306 14.0539 132.169 14.0539 132.031C14.0539 131.893 14.0252 131.756 13.9698 131.63C13.9144 131.503 13.8334 131.389 13.7319 131.296Z" fill="#00BB98"/>
<path d="M28.8058 89.848V90.792C28.8058 91.448 28.4378 91.64 27.8778 91.64H26.0218V92.728H28.8058V101H29.9098V89.848H28.8058ZM37.8181 101.16C40.3621 101.16 41.2581 98.504 41.2581 95.448C41.2581 92.392 40.3461 89.688 37.7061 89.688C34.8101 89.688 34.2501 92.776 34.2501 95.432C34.2501 98.088 34.8421 101.16 37.8181 101.16ZM37.7861 100.104C35.7541 100.104 35.3861 97.784 35.3861 95.432C35.3861 93.032 35.7541 90.744 37.7061 90.744C39.5781 90.744 40.0741 92.856 40.0741 95.432C40.0741 97.96 39.5941 100.104 37.7861 100.104ZM46.8337 101.16C49.3777 101.16 50.2737 98.504 50.2737 95.448C50.2737 92.392 49.3617 89.688 46.7217 89.688C43.8257 89.688 43.2657 92.776 43.2657 95.432C43.2657 98.088 43.8577 101.16 46.8337 101.16ZM46.8017 100.104C44.7697 100.104 44.4017 97.784 44.4017 95.432C44.4017 93.032 44.7697 90.744 46.7217 90.744C48.5937 90.744 49.0897 92.856 49.0897 95.432C49.0897 97.96 48.6097 100.104 46.8017 100.104ZM55.8493 101.16C58.3933 101.16 59.2893 98.504 59.2893 95.448C59.2893 92.392 58.3773 89.688 55.7373 89.688C52.8413 89.688 52.2813 92.776 52.2813 95.432C52.2813 98.088 52.8733 101.16 55.8493 101.16ZM55.8173 100.104C53.7853 100.104 53.4173 97.784 53.4173 95.432C53.4173 93.032 53.7853 90.744 55.7373 90.744C57.6093 90.744 58.1053 92.856 58.1053 95.432C58.1053 97.96 57.6253 100.104 55.8173 100.104ZM76.1665 101.176L74.5505 99.592C75.4465 98.584 75.9585 97.16 75.9585 95.432C75.9585 91.976 73.9105 89.688 70.8545 89.688C67.7985 89.688 65.7505 91.976 65.7505 95.432C65.7505 98.872 67.7985 101.16 70.8545 101.16C71.9905 101.16 72.9825 100.84 73.7985 100.264L75.4305 101.864L76.1665 101.176ZM70.8545 100.072C68.4385 100.072 66.8865 98.264 66.8865 95.432C66.8865 92.584 68.4385 90.776 70.8545 90.776C73.2705 90.776 74.8225 92.584 74.8225 95.432C74.8225 96.84 74.4385 98.008 73.7505 98.808L71.9425 97.032L71.1745 97.72L72.9825 99.48C72.3905 99.864 71.6705 100.072 70.8545 100.072ZM83.6893 93.112V96.744C83.6893 98.792 82.9053 100.152 81.3373 100.152C79.8333 100.152 79.6093 98.952 79.6093 97.672V93.112H78.5053V97.944C78.5053 99.896 79.2893 101.128 81.0813 101.128C82.1213 101.128 83.1293 100.712 83.6893 99.864V101H84.7933V93.112H83.6893ZM93.9228 96.664C93.9228 94.872 92.9148 92.984 90.4988 92.984C88.2108 92.984 86.9948 94.872 86.9948 97.096C86.9948 99.336 88.2268 101.128 90.6268 101.128C91.8428 101.128 92.7548 100.776 93.6828 99.8L92.9148 99.128C92.1948 99.896 91.5068 100.12 90.6428 100.12C89.0908 100.12 88.1308 99.08 88.0988 97.352H93.8748C93.9068 97.16 93.9228 96.888 93.9228 96.664ZM90.4988 93.912C91.9548 93.912 92.7708 94.888 92.8508 96.168C92.8508 96.312 92.8668 96.392 92.8668 96.424H88.0988C88.1948 95.032 89.0748 93.912 90.4988 93.912ZM99.5905 92.984C98.7905 92.984 97.8305 93.256 97.2545 94.296V93.112H96.1505V101H97.2545V96.6C97.2545 94.888 98.1505 93.976 99.3665 93.976C99.7025 93.976 100.038 94.056 100.406 94.216L100.95 93.32C100.518 93.08 100.07 92.984 99.5905 92.984ZM102.492 91.48H103.772V89.848H102.492V91.48ZM102.588 101H103.692V93.112H102.588V101ZM112.892 96.664C112.892 94.872 111.884 92.984 109.468 92.984C107.18 92.984 105.964 94.872 105.964 97.096C105.964 99.336 107.196 101.128 109.596 101.128C110.812 101.128 111.724 100.776 112.652 99.8L111.884 99.128C111.164 99.896 110.476 100.12 109.612 100.12C108.06 100.12 107.1 99.08 107.068 97.352H112.844C112.876 97.16 112.892 96.888 112.892 96.664ZM109.468 93.912C110.924 93.912 111.74 94.888 111.82 96.168C111.82 96.312 111.836 96.392 111.836 96.424H107.068C107.164 95.032 108.044 93.912 109.468 93.912ZM117.503 101.128C119.023 101.128 120.335 100.328 120.335 98.728C120.335 95.736 115.775 96.92 115.775 95.048C115.775 94.36 116.399 93.96 117.375 93.96C118.351 93.96 118.975 94.408 119.359 95.112L120.239 94.632C119.695 93.512 118.671 92.984 117.407 92.984C115.823 92.984 114.703 93.832 114.703 95.208C114.703 98.008 119.247 96.696 119.247 98.792C119.247 99.624 118.559 100.152 117.487 100.152C116.255 100.152 115.487 99.464 115.199 98.648L114.271 99.064C114.687 100.328 115.951 101.128 117.503 101.128Z" fill="#000B33"/>
<path d="M13.7319 90.2958C13.639 90.2021 13.5284 90.1277 13.4065 90.0769C13.2846 90.0261 13.1539 90 13.0219 90C12.8899 90 12.7592 90.0261 12.6373 90.0769C12.5155 90.1277 12.4049 90.2021 12.3119 90.2958L4.86192 97.7558L1.73192 94.6158C1.6354 94.5226 1.52146 94.4492 1.3966 94.4C1.27175 94.3508 1.13843 94.3267 1.00424 94.329C0.870064 94.3314 0.737655 94.3601 0.614576 94.4136C0.491498 94.4671 0.380161 94.5443 0.286922 94.6408C0.193684 94.7373 0.12037 94.8513 0.0711659 94.9761C0.0219619 95.101 -0.00216855 95.2343 0.000152918 95.3685C0.00247438 95.5027 0.0312022 95.6351 0.0846957 95.7581C0.138189 95.8812 0.215401 95.9926 0.311922 96.0858L4.15192 99.9258C4.24489 100.02 4.35549 100.094 4.47735 100.145C4.59921 100.195 4.72991 100.222 4.86192 100.222C4.99393 100.222 5.12464 100.195 5.2465 100.145C5.36836 100.094 5.47896 100.02 5.57192 99.9258L13.7319 91.7658C13.8334 91.6722 13.9144 91.5585 13.9698 91.432C14.0252 91.3055 14.0539 91.1689 14.0539 91.0308C14.0539 90.8927 14.0252 90.7561 13.9698 90.6296C13.9144 90.5031 13.8334 90.3894 13.7319 90.2958Z" fill="#00BB98"/>
</svg>
