<svg width="178" height="190" viewBox="0 0 178 190" fill="none" xmlns="http://www.w3.org/2000/svg">
<path d="M28.8058 7.848V8.792C28.8058 9.448 28.4378 9.64 27.8778 9.64H26.0218V10.728H28.8058V19H29.9098V7.848H28.8058ZM37.8181 19.16C40.3621 19.16 41.2581 16.504 41.2581 13.448C41.2581 10.392 40.3461 7.688 37.7061 7.688C34.8101 7.688 34.2501 10.776 34.2501 13.432C34.2501 16.088 34.8421 19.16 37.8181 19.16ZM37.7861 18.104C35.7541 18.104 35.3861 15.784 35.3861 13.432C35.3861 11.032 35.7541 8.744 37.7061 8.744C39.5781 8.744 40.0741 10.856 40.0741 13.432C40.0741 15.96 39.5941 18.104 37.7861 18.104ZM53.7352 14.168H56.4232V14.52C56.4232 17.064 54.7432 18.072 52.8232 18.072C50.0552 18.072 48.8872 16.008 48.8872 13.352C48.8872 10.6 50.2152 8.776 52.9032 8.776C54.7592 8.776 55.8792 9.624 56.4392 11.144L57.4952 10.744C56.7592 8.824 55.2552 7.688 52.9032 7.688C49.4792 7.688 47.7512 10.088 47.7512 13.4C47.7512 16.728 49.4952 19.16 52.7432 19.16C54.4552 19.16 55.8152 18.488 56.4232 17.256L56.5832 19H57.4952V13.24H53.7352V14.168ZM60.7372 19H64.4972C66.7852 19 68.0652 17.88 68.0652 15.88C68.0652 14.392 67.3452 13.4 66.0172 13.064C66.9612 12.664 67.4892 11.784 67.4892 10.632C67.4892 8.872 66.2572 7.848 64.1612 7.848H60.7372V19ZM61.8732 12.712V8.904H64.1612C65.5532 8.904 66.3532 9.608 66.3532 10.824C66.3532 11.992 65.6172 12.712 64.3852 12.712H61.8732ZM61.8732 17.944V13.704H64.7212C66.1132 13.704 66.9132 14.472 66.9132 15.784C66.9132 17.176 66.0172 17.944 64.4172 17.944H61.8732ZM75.3153 19H78.3233C82.0193 19 84.0353 17.064 84.0353 13.512C84.0353 9.912 81.9713 7.848 78.3393 7.848H75.3153V19ZM76.4513 17.944V8.904H78.3233C81.3473 8.904 82.8833 10.44 82.8833 13.464C82.8833 16.472 81.3473 17.944 78.2273 17.944H76.4513ZM86.4451 9.48H87.7251V7.848H86.4451V9.48ZM86.5411 19H87.6451V11.112H86.5411V19ZM92.9407 19.128C94.4607 19.128 95.7727 18.328 95.7727 16.728C95.7727 13.736 91.2127 14.92 91.2127 13.048C91.2127 12.36 91.8367 11.96 92.8127 11.96C93.7887 11.96 94.4127 12.408 94.7967 13.112L95.6767 12.632C95.1327 11.512 94.1087 10.984 92.8447 10.984C91.2607 10.984 90.1407 11.832 90.1407 13.208C90.1407 16.008 94.6847 14.696 94.6847 16.792C94.6847 17.624 93.9967 18.152 92.9247 18.152C91.6927 18.152 90.9247 17.464 90.6367 16.648L89.7087 17.064C90.1247 18.328 91.3887 19.128 92.9407 19.128ZM98.0098 19H99.1138V16.68L100.922 14.76L103.674 19H104.986L101.674 14.072L104.538 11.112H103.05L99.1138 15.288V7.848H98.0098V19ZM114.352 19.16C116.656 19.16 117.952 17.96 117.952 16.088C117.952 14.536 117.248 13.64 114.768 12.696C113.008 12.024 112.24 11.48 112.24 10.456C112.24 9.512 113.072 8.712 114.24 8.712C115.2 8.712 116.016 9.224 116.496 10.088L117.456 9.496C116.784 8.312 115.68 7.688 114.272 7.688C112.384 7.688 111.104 8.808 111.104 10.504C111.104 11.96 111.888 12.76 114.144 13.608C116.112 14.36 116.8 14.984 116.8 16.184C116.8 17.288 115.984 18.136 114.368 18.136C112.864 18.136 111.776 17.224 111.568 15.784L110.432 16.056C110.736 17.928 112.288 19.16 114.352 19.16ZM123.519 10.968C122.399 10.968 121.503 11.4 120.911 12.168V11.112H119.807V22.264H120.911V17.944C121.487 18.68 122.367 19.128 123.519 19.128C125.823 19.128 127.023 17.4 127.023 15.048C127.023 12.584 125.711 10.968 123.519 10.968ZM123.359 18.152C121.695 18.152 120.815 16.84 120.815 15.048C120.815 13.176 121.775 11.944 123.359 11.944C124.959 11.944 125.919 13.176 125.919 15.048C125.919 16.84 125.039 18.152 123.359 18.152ZM132.043 10.984C130.699 10.984 129.675 11.496 128.827 12.6L129.627 13.272C130.267 12.392 131.035 11.96 132.027 11.96C133.355 11.96 134.075 12.712 134.075 14.088V14.456H132.459C130.907 14.456 130.059 14.6 129.451 14.952C128.875 15.304 128.555 15.912 128.555 16.712C128.555 18.232 129.563 19.128 131.275 19.128C132.523 19.128 133.483 18.664 134.107 17.784L134.171 19H135.179V14.088C135.179 12.12 134.027 10.984 132.043 10.984ZM131.595 18.216C130.411 18.216 129.659 17.656 129.659 16.776C129.659 16.328 129.803 15.976 130.091 15.752C130.475 15.448 131.099 15.352 132.555 15.352H134.075V15.464C134.075 17.144 133.115 18.216 131.595 18.216ZM140.781 19.128C142.205 19.128 143.357 18.376 143.885 16.936L142.861 16.552C142.557 17.56 141.773 18.152 140.781 18.152C139.085 18.152 138.333 16.696 138.333 15.08C138.333 13.464 139.085 11.96 140.765 11.96C141.757 11.96 142.541 12.568 142.909 13.576L143.965 13.16C143.341 11.688 142.173 10.984 140.765 10.984C138.381 10.984 137.213 13 137.213 15.08C137.213 17.272 138.493 19.128 140.781 19.128ZM152.204 14.664C152.204 12.872 151.196 10.984 148.78 10.984C146.492 10.984 145.276 12.872 145.276 15.096C145.276 17.336 146.508 19.128 148.908 19.128C150.124 19.128 151.036 18.776 151.964 17.8L151.196 17.128C150.476 17.896 149.788 18.12 148.924 18.12C147.372 18.12 146.412 17.08 146.38 15.352H152.156C152.188 15.16 152.204 14.888 152.204 14.664ZM148.78 11.912C150.236 11.912 151.052 12.888 151.132 14.168C151.132 14.312 151.148 14.392 151.148 14.424H146.38C146.476 13.032 147.356 11.912 148.78 11.912Z" fill="#000B33"/>
<path d="M13.7319 8.2958C13.639 8.20207 13.5284 8.12768 13.4065 8.07691C13.2846 8.02614 13.1539 8 13.0219 8C12.8899 8 12.7592 8.02614 12.6373 8.07691C12.5155 8.12768 12.4049 8.20207 12.3119 8.2958L4.86192 15.7558L1.73192 12.6158C1.6354 12.5226 1.52146 12.4492 1.3966 12.4C1.27175 12.3508 1.13843 12.3267 1.00424 12.329C0.870064 12.3314 0.737655 12.3601 0.614576 12.4136C0.491498 12.4671 0.380161 12.5443 0.286922 12.6408C0.193684 12.7373 0.12037 12.8513 0.0711659 12.9761C0.0219619 13.101 -0.00216855 13.2343 0.000152918 13.3685C0.00247438 13.5027 0.0312022 13.6351 0.0846957 13.7581C0.138189 13.8812 0.215401 13.9926 0.311922 14.0858L4.15192 17.9258C4.24489 18.0195 4.35549 18.0939 4.47735 18.1447C4.59921 18.1955 4.72991 18.2216 4.86192 18.2216C4.99393 18.2216 5.12464 18.1955 5.2465 18.1447C5.36836 18.0939 5.47896 18.0195 5.57192 17.9258L13.7319 9.7658C13.8334 9.67216 13.9144 9.5585 13.9698 9.432C14.0252 9.30551 14.0539 9.1689 14.0539 9.0308C14.0539 8.8927 14.0252 8.75609 13.9698 8.62959C13.9144 8.50309 13.8334 8.38944 13.7319 8.2958Z" fill="#00BB98"/>
<path d="M25.8778 183H27.0138V177.848H32.6458V176.792H27.0138V172.904H33.4458V171.848H25.8778V183ZM38.5905 174.984C37.7905 174.984 36.8305 175.256 36.2545 176.296V175.112H35.1505V183H36.2545V178.6C36.2545 176.888 37.1505 175.976 38.3665 175.976C38.7025 175.976 39.0385 176.056 39.4065 176.216L39.9505 175.32C39.5185 175.08 39.0705 174.984 38.5905 174.984ZM47.1572 178.664C47.1572 176.872 46.1492 174.984 43.7332 174.984C41.4452 174.984 40.2292 176.872 40.2292 179.096C40.2292 181.336 41.4612 183.128 43.8612 183.128C45.0772 183.128 45.9892 182.776 46.9172 181.8L46.1492 181.128C45.4292 181.896 44.7412 182.12 43.8772 182.12C42.3252 182.12 41.3652 181.08 41.3332 179.352H47.1092C47.1412 179.16 47.1572 178.888 47.1572 178.664ZM43.7332 175.912C45.1892 175.912 46.0052 176.888 46.0852 178.168C46.0852 178.312 46.1012 178.392 46.1012 178.424H41.3332C41.4292 177.032 42.3092 175.912 43.7332 175.912ZM55.6728 178.664C55.6728 176.872 54.6648 174.984 52.2488 174.984C49.9608 174.984 48.7448 176.872 48.7448 179.096C48.7448 181.336 49.9768 183.128 52.3768 183.128C53.5928 183.128 54.5048 182.776 55.4328 181.8L54.6648 181.128C53.9448 181.896 53.2568 182.12 52.3928 182.12C50.8408 182.12 49.8808 181.08 49.8488 179.352H55.6248C55.6568 179.16 55.6728 178.888 55.6728 178.664ZM52.2488 175.912C53.7048 175.912 54.5208 176.888 54.6008 178.168C54.6008 178.312 54.6168 178.392 54.6168 178.424H49.8488C49.9448 177.032 50.8248 175.912 52.2488 175.912ZM66.9795 183.16C69.2035 183.16 70.8515 182.088 71.6835 180.056L70.5955 179.656C69.9715 181.256 68.7235 182.072 66.9795 182.072C64.4835 182.072 63.0435 180.376 63.0435 177.4C63.0435 174.44 64.4995 172.776 67.0595 172.776C68.8195 172.776 70.0035 173.544 70.5955 175.144L71.6515 174.744C70.8675 172.712 69.2995 171.688 67.0595 171.688C63.8435 171.688 61.9075 173.816 61.9075 177.4C61.9075 181 63.8115 183.16 66.9795 183.16ZM78.6112 175.112V178.744C78.6112 180.792 77.8272 182.152 76.2592 182.152C74.7552 182.152 74.5312 180.952 74.5312 179.672V175.112H73.4272V179.944C73.4272 181.896 74.2112 183.128 76.0032 183.128C77.0432 183.128 78.0512 182.712 78.6112 181.864V183H79.7152V175.112H78.6112ZM85.0188 183.128C86.5388 183.128 87.8508 182.328 87.8508 180.728C87.8508 177.736 83.2908 178.92 83.2908 177.048C83.2908 176.36 83.9148 175.96 84.8908 175.96C85.8668 175.96 86.4908 176.408 86.8748 177.112L87.7548 176.632C87.2108 175.512 86.1868 174.984 84.9228 174.984C83.3388 174.984 82.2188 175.832 82.2188 177.208C82.2188 180.008 86.7628 178.696 86.7628 180.792C86.7628 181.624 86.0748 182.152 85.0028 182.152C83.7708 182.152 83.0028 181.464 82.7148 180.648L81.7868 181.064C82.2028 182.328 83.4668 183.128 85.0188 183.128ZM93.352 181.944C93 182.056 92.696 182.12 92.424 182.12C91.8 182.12 91.448 181.768 91.448 181V176.04H93.352V175.112H91.448V172.232L90.344 173.064V175.112H89.032V176.04H90.344V181.144C90.344 182.536 91.112 183.128 92.168 183.128C92.536 183.128 92.952 183.048 93.368 182.92L93.352 181.944ZM98.4728 183.128C100.729 183.128 102.265 181.368 102.265 179.048C102.265 176.712 100.713 174.984 98.4728 174.984C96.2168 174.984 94.6968 176.712 94.6968 179.048C94.6968 181.384 96.2168 183.128 98.4728 183.128ZM98.4728 182.152C96.7928 182.152 95.8008 180.84 95.8008 179.048C95.8008 177.272 96.7768 175.96 98.4728 175.96C100.153 175.96 101.161 177.256 101.161 179.048C101.161 180.808 100.169 182.152 98.4728 182.152ZM112.638 174.984C111.438 174.984 110.558 175.496 110.046 176.504C109.646 175.464 108.83 174.984 107.726 174.984C106.846 174.984 106.046 175.288 105.55 176.072V175.112H104.478L104.494 183H105.598V179.208C105.598 177.416 106.03 175.96 107.566 175.96C108.942 175.96 109.342 177.128 109.342 178.44V183H110.446V179.208C110.446 177.432 110.878 175.96 112.478 175.96C114.206 175.96 114.206 177.704 114.206 178.376V183H115.31V178.072C115.31 176.232 114.526 174.984 112.638 174.984ZM122.768 183H125.776C129.472 183 131.488 181.064 131.488 177.512C131.488 173.912 129.424 171.848 125.792 171.848H122.768V183ZM123.904 181.944V172.904H125.776C128.8 172.904 130.336 174.44 130.336 177.464C130.336 180.472 128.8 181.944 125.68 181.944H123.904ZM137.082 183.128C139.338 183.128 140.874 181.368 140.874 179.048C140.874 176.712 139.322 174.984 137.082 174.984C134.826 174.984 133.306 176.712 133.306 179.048C133.306 181.384 134.826 183.128 137.082 183.128ZM137.082 182.152C135.402 182.152 134.41 180.84 134.41 179.048C134.41 177.272 135.386 175.96 137.082 175.96C138.762 175.96 139.77 177.256 139.77 179.048C139.77 180.808 138.778 182.152 137.082 182.152ZM151.248 174.984C150.048 174.984 149.168 175.496 148.656 176.504C148.256 175.464 147.44 174.984 146.336 174.984C145.456 174.984 144.656 175.288 144.16 176.072V175.112H143.088L143.104 183H144.208V179.208C144.208 177.416 144.64 175.96 146.176 175.96C147.552 175.96 147.952 177.128 147.952 178.44V183H149.056V179.208C149.056 177.432 149.488 175.96 151.088 175.96C152.816 175.96 152.816 177.704 152.816 178.376V183H153.92V178.072C153.92 176.232 153.136 174.984 151.248 174.984ZM159.371 174.984C158.027 174.984 157.003 175.496 156.155 176.6L156.955 177.272C157.595 176.392 158.363 175.96 159.355 175.96C160.683 175.96 161.403 176.712 161.403 178.088V178.456H159.787C158.235 178.456 157.387 178.6 156.779 178.952C156.203 179.304 155.883 179.912 155.883 180.712C155.883 182.232 156.891 183.128 158.603 183.128C159.851 183.128 160.811 182.664 161.435 181.784L161.499 183H162.507V178.088C162.507 176.12 161.355 174.984 159.371 174.984ZM158.923 182.216C157.739 182.216 156.987 181.656 156.987 180.776C156.987 180.328 157.131 179.976 157.419 179.752C157.803 179.448 158.427 179.352 159.883 179.352H161.403V179.464C161.403 181.144 160.443 182.216 158.923 182.216ZM165.101 173.48H166.381V171.848H165.101V173.48ZM165.197 183H166.301V175.112H165.197V183ZM172.925 174.984C171.789 174.984 170.829 175.464 170.317 176.264V175.112H169.213V183H170.317V179.464C170.317 177.24 171.181 175.96 172.669 175.96C173.853 175.96 174.397 176.744 174.397 178.44V183H175.501V178.168C175.501 176.072 174.621 174.984 172.925 174.984Z" fill="#000B33"/>
<path d="M13.7319 172.296C13.639 172.202 13.5284 172.128 13.4065 172.077C13.2846 172.026 13.1539 172 13.0219 172C12.8899 172 12.7592 172.026 12.6373 172.077C12.5155 172.128 12.4049 172.202 12.3119 172.296L4.86192 179.756L1.73192 176.616C1.6354 176.523 1.52146 176.449 1.3966 176.4C1.27175 176.351 1.13843 176.327 1.00424 176.329C0.870064 176.331 0.737655 176.36 0.614576 176.414C0.491498 176.467 0.380161 176.544 0.286922 176.641C0.193684 176.737 0.12037 176.851 0.0711659 176.976C0.0219619 177.101 -0.00216855 177.234 0.000152918 177.368C0.00247438 177.503 0.0312022 177.635 0.0846957 177.758C0.138189 177.881 0.215401 177.993 0.311922 178.086L4.15192 181.926C4.24489 182.02 4.35549 182.094 4.47735 182.145C4.59921 182.195 4.72991 182.222 4.86192 182.222C4.99393 182.222 5.12464 182.195 5.2465 182.145C5.36836 182.094 5.47896 182.02 5.57192 181.926L13.7319 173.766C13.8334 173.672 13.9144 173.559 13.9698 173.432C14.0252 173.306 14.0539 173.169 14.0539 173.031C14.0539 172.893 14.0252 172.756 13.9698 172.63C13.9144 172.503 13.8334 172.389 13.7319 172.296Z" fill="#00BB98"/>
<path d="M28.8058 48.848V49.792C28.8058 50.448 28.4378 50.64 27.8778 50.64H26.0218V51.728H28.8058V60H29.9098V48.848H28.8058ZM42.243 60H43.395V55.728L47.651 48.848H46.291L42.803 54.624L39.331 48.848H37.987L42.243 55.728V60ZM54.4228 55.664C54.4228 53.872 53.4148 51.984 50.9988 51.984C48.7108 51.984 47.4948 53.872 47.4948 56.096C47.4948 58.336 48.7268 60.128 51.1268 60.128C52.3428 60.128 53.2548 59.776 54.1828 58.8L53.4148 58.128C52.6948 58.896 52.0068 59.12 51.1428 59.12C49.5908 59.12 48.6308 58.08 48.5988 56.352H54.3748C54.4068 56.16 54.4228 55.888 54.4228 55.664ZM50.9988 52.912C52.4548 52.912 53.2708 53.888 53.3508 55.168C53.3508 55.312 53.3668 55.392 53.3668 55.424H48.5988C48.6948 54.032 49.5748 52.912 50.9988 52.912ZM59.3865 51.984C58.0425 51.984 57.0185 52.496 56.1705 53.6L56.9705 54.272C57.6105 53.392 58.3785 52.96 59.3705 52.96C60.6985 52.96 61.4185 53.712 61.4185 55.088V55.456H59.8025C58.2505 55.456 57.4025 55.6 56.7945 55.952C56.2185 56.304 55.8985 56.912 55.8985 57.712C55.8985 59.232 56.9065 60.128 58.6185 60.128C59.8665 60.128 60.8265 59.664 61.4505 58.784L61.5145 60H62.5225V55.088C62.5225 53.12 61.3705 51.984 59.3865 51.984ZM58.9385 59.216C57.7545 59.216 57.0025 58.656 57.0025 57.776C57.0025 57.328 57.1465 56.976 57.4345 56.752C57.8185 56.448 58.4425 56.352 59.8985 56.352H61.4185V56.464C61.4185 58.144 60.4585 59.216 58.9385 59.216ZM68.653 51.984C67.853 51.984 66.893 52.256 66.317 53.296V52.112H65.213V60H66.317V55.6C66.317 53.888 67.213 52.976 68.429 52.976C68.765 52.976 69.101 53.056 69.469 53.216L70.013 52.32C69.581 52.08 69.133 51.984 68.653 51.984ZM79.2735 60.16C81.5775 60.16 82.8735 58.96 82.8735 57.088C82.8735 55.536 82.1695 54.64 79.6895 53.696C77.9295 53.024 77.1615 52.48 77.1615 51.456C77.1615 50.512 77.9935 49.712 79.1615 49.712C80.1215 49.712 80.9375 50.224 81.4175 51.088L82.3775 50.496C81.7055 49.312 80.6015 48.688 79.1935 48.688C77.3055 48.688 76.0255 49.808 76.0255 51.504C76.0255 52.96 76.8095 53.76 79.0655 54.608C81.0335 55.36 81.7215 55.984 81.7215 57.184C81.7215 58.288 80.9055 59.136 79.2895 59.136C77.7855 59.136 76.6975 58.224 76.4895 56.784L75.3535 57.056C75.6575 58.928 77.2095 60.16 79.2735 60.16ZM89.7987 52.112V55.744C89.7987 57.792 89.0147 59.152 87.4467 59.152C85.9427 59.152 85.7187 57.952 85.7187 56.672V52.112H84.6147V56.944C84.6147 58.896 85.3987 60.128 87.1907 60.128C88.2307 60.128 89.2387 59.712 89.7987 58.864V60H90.9027V52.112H89.7987ZM97.5343 51.968C96.4143 51.968 95.5183 52.4 94.9263 53.168V52.112H93.8223V63.264H94.9263V58.944C95.5023 59.68 96.3823 60.128 97.5343 60.128C99.8383 60.128 101.038 58.4 101.038 56.048C101.038 53.584 99.7263 51.968 97.5343 51.968ZM97.3743 59.152C95.7103 59.152 94.8303 57.84 94.8303 56.048C94.8303 54.176 95.7903 52.944 97.3743 52.944C98.9743 52.944 99.9343 54.176 99.9343 56.048C99.9343 57.84 99.0543 59.152 97.3743 59.152ZM107.034 51.968C105.914 51.968 105.018 52.4 104.426 53.168V52.112H103.322V63.264H104.426V58.944C105.002 59.68 105.882 60.128 107.034 60.128C109.338 60.128 110.538 58.4 110.538 56.048C110.538 53.584 109.226 51.968 107.034 51.968ZM106.874 59.152C105.21 59.152 104.33 57.84 104.33 56.048C104.33 54.176 105.29 52.944 106.874 52.944C108.474 52.944 109.434 54.176 109.434 56.048C109.434 57.84 108.554 59.152 106.874 59.152ZM115.91 60.128C118.166 60.128 119.702 58.368 119.702 56.048C119.702 53.712 118.15 51.984 115.91 51.984C113.654 51.984 112.134 53.712 112.134 56.048C112.134 58.384 113.654 60.128 115.91 60.128ZM115.91 59.152C114.23 59.152 113.238 57.84 113.238 56.048C113.238 54.272 114.214 52.96 115.91 52.96C117.59 52.96 118.598 54.256 118.598 56.048C118.598 57.808 117.606 59.152 115.91 59.152ZM125.372 51.984C124.572 51.984 123.612 52.256 123.036 53.296V52.112H121.932V60H123.036V55.6C123.036 53.888 123.932 52.976 125.148 52.976C125.484 52.976 125.82 53.056 126.188 53.216L126.732 52.32C126.3 52.08 125.852 51.984 125.372 51.984ZM132.039 58.944C131.687 59.056 131.383 59.12 131.111 59.12C130.487 59.12 130.135 58.768 130.135 58V53.04H132.039V52.112H130.135V49.232L129.031 50.064V52.112H127.719V53.04H129.031V58.144C129.031 59.536 129.799 60.128 130.855 60.128C131.223 60.128 131.639 60.048 132.055 59.92L132.039 58.944Z" fill="#000B33"/>
<path d="M13.7319 49.2958C13.639 49.2021 13.5284 49.1277 13.4065 49.0769C13.2846 49.0261 13.1539 49 13.0219 49C12.8899 49 12.7592 49.0261 12.6373 49.0769C12.5155 49.1277 12.4049 49.2021 12.3119 49.2958L4.86192 56.7558L1.73192 53.6158C1.6354 53.5226 1.52146 53.4492 1.3966 53.4C1.27175 53.3508 1.13843 53.3267 1.00424 53.329C0.870064 53.3314 0.737655 53.3601 0.614576 53.4136C0.491498 53.4671 0.380161 53.5443 0.286922 53.6408C0.193684 53.7373 0.12037 53.8513 0.0711659 53.9761C0.0219619 54.101 -0.00216855 54.2343 0.000152918 54.3685C0.00247438 54.5027 0.0312022 54.6351 0.0846957 54.7581C0.138189 54.8812 0.215401 54.9926 0.311922 55.0858L4.15192 58.9258C4.24489 59.0195 4.35549 59.0939 4.47735 59.1447C4.59921 59.1955 4.72991 59.2216 4.86192 59.2216C4.99393 59.2216 5.12464 59.1955 5.2465 59.1447C5.36836 59.0939 5.47896 59.0195 5.57192 58.9258L13.7319 50.7658C13.8334 50.6722 13.9144 50.5585 13.9698 50.432C14.0252 50.3055 14.0539 50.1689 14.0539 50.0308C14.0539 49.8927 14.0252 49.7561 13.9698 49.6296C13.9144 49.5031 13.8334 49.3894 13.7319 49.2958Z" fill="#00BB98"/>
<path d="M25.8778 142H29.6378C31.9258 142 33.2058 140.88 33.2058 138.88C33.2058 137.392 32.4858 136.4 31.1578 136.064C32.1018 135.664 32.6298 134.784 32.6298 133.632C32.6298 131.872 31.3978 130.848 29.3018 130.848H25.8778V142ZM27.0138 135.712V131.904H29.3018C30.6938 131.904 31.4938 132.608 31.4938 133.824C31.4938 134.992 30.7578 135.712 29.5258 135.712H27.0138ZM27.0138 140.944V136.704H29.8618C31.2538 136.704 32.0538 137.472 32.0538 138.784C32.0538 140.176 31.1578 140.944 29.5578 140.944H27.0138ZM38.2927 133.984C36.9487 133.984 35.9247 134.496 35.0767 135.6L35.8767 136.272C36.5167 135.392 37.2847 134.96 38.2767 134.96C39.6047 134.96 40.3247 135.712 40.3247 137.088V137.456H38.7087C37.1567 137.456 36.3087 137.6 35.7007 137.952C35.1247 138.304 34.8047 138.912 34.8047 139.712C34.8047 141.232 35.8127 142.128 37.5247 142.128C38.7727 142.128 39.7327 141.664 40.3567 140.784L40.4207 142H41.4287V137.088C41.4287 135.12 40.2767 133.984 38.2927 133.984ZM37.8447 141.216C36.6607 141.216 35.9087 140.656 35.9087 139.776C35.9087 139.328 36.0527 138.976 36.3407 138.752C36.7247 138.448 37.3487 138.352 38.8047 138.352H40.3247V138.464C40.3247 140.144 39.3647 141.216 37.8447 141.216ZM46.5032 142.128C48.0232 142.128 49.3352 141.328 49.3352 139.728C49.3352 136.736 44.7752 137.92 44.7752 136.048C44.7752 135.36 45.3992 134.96 46.3752 134.96C47.3512 134.96 47.9752 135.408 48.3592 136.112L49.2392 135.632C48.6952 134.512 47.6712 133.984 46.4072 133.984C44.8232 133.984 43.7032 134.832 43.7032 136.208C43.7032 139.008 48.2472 137.696 48.2472 139.792C48.2472 140.624 47.5592 141.152 46.4872 141.152C45.2552 141.152 44.4872 140.464 44.1992 139.648L43.2712 140.064C43.6872 141.328 44.9512 142.128 46.5032 142.128ZM51.4763 132.48H52.7563V130.848H51.4763V132.48ZM51.5723 142H52.6763V134.112H51.5723V142ZM58.5 142.128C59.924 142.128 61.076 141.376 61.604 139.936L60.58 139.552C60.276 140.56 59.492 141.152 58.5 141.152C56.804 141.152 56.052 139.696 56.052 138.08C56.052 136.464 56.804 134.96 58.484 134.96C59.476 134.96 60.26 135.568 60.628 136.576L61.684 136.16C61.06 134.688 59.892 133.984 58.484 133.984C56.1 133.984 54.932 136 54.932 138.08C54.932 140.272 56.212 142.128 58.5 142.128ZM71.336 142.16C73.64 142.16 74.936 140.96 74.936 139.088C74.936 137.536 74.232 136.64 71.752 135.696C69.992 135.024 69.224 134.48 69.224 133.456C69.224 132.512 70.056 131.712 71.224 131.712C72.184 131.712 73 132.224 73.48 133.088L74.44 132.496C73.768 131.312 72.664 130.688 71.256 130.688C69.368 130.688 68.088 131.808 68.088 133.504C68.088 134.96 68.872 135.76 71.128 136.608C73.096 137.36 73.784 137.984 73.784 139.184C73.784 140.288 72.968 141.136 71.352 141.136C69.848 141.136 68.76 140.224 68.552 138.784L67.416 139.056C67.72 140.928 69.272 142.16 71.336 142.16ZM80.3832 140.944C80.0312 141.056 79.7272 141.12 79.4552 141.12C78.8312 141.12 78.4792 140.768 78.4792 140V135.04H80.3832V134.112H78.4792V131.232L77.3752 132.064V134.112H76.0632V135.04H77.3752V140.144C77.3752 141.536 78.1432 142.128 79.1992 142.128C79.5672 142.128 79.9832 142.048 80.3992 141.92L80.3832 140.944ZM85.2302 133.984C83.8862 133.984 82.8622 134.496 82.0142 135.6L82.8142 136.272C83.4542 135.392 84.2222 134.96 85.2142 134.96C86.5422 134.96 87.2622 135.712 87.2622 137.088V137.456H85.6462C84.0942 137.456 83.2462 137.6 82.6382 137.952C82.0622 138.304 81.7422 138.912 81.7422 139.712C81.7422 141.232 82.7502 142.128 84.4622 142.128C85.7102 142.128 86.6702 141.664 87.2942 140.784L87.3582 142H88.3662V137.088C88.3662 135.12 87.2142 133.984 85.2302 133.984ZM84.7822 141.216C83.5982 141.216 82.8462 140.656 82.8462 139.776C82.8462 139.328 82.9902 138.976 83.2782 138.752C83.6622 138.448 84.2862 138.352 85.7422 138.352H87.2622V138.464C87.2622 140.144 86.3022 141.216 84.7822 141.216ZM94.3207 140.944C93.9687 141.056 93.6647 141.12 93.3927 141.12C92.7687 141.12 92.4167 140.768 92.4167 140V135.04H94.3207V134.112H92.4167V131.232L91.3127 132.064V134.112H90.0007V135.04H91.3127V140.144C91.3127 141.536 92.0807 142.128 93.1367 142.128C93.5047 142.128 93.9207 142.048 94.3367 141.92L94.3207 140.944ZM96.3357 132.48H97.6157V130.848H96.3357V132.48ZM96.4317 142H97.5357V134.112H96.4317V142ZM102.831 142.128C104.351 142.128 105.663 141.328 105.663 139.728C105.663 136.736 101.103 137.92 101.103 136.048C101.103 135.36 101.727 134.96 102.703 134.96C103.679 134.96 104.303 135.408 104.687 136.112L105.567 135.632C105.023 134.512 103.999 133.984 102.735 133.984C101.151 133.984 100.031 134.832 100.031 136.208C100.031 139.008 104.575 137.696 104.575 139.792C104.575 140.624 103.887 141.152 102.815 141.152C101.583 141.152 100.815 140.464 100.527 139.648L99.5993 140.064C100.015 141.328 101.279 142.128 102.831 142.128ZM111.164 140.944C110.812 141.056 110.508 141.12 110.236 141.12C109.612 141.12 109.26 140.768 109.26 140V135.04H111.164V134.112H109.26V131.232L108.156 132.064V134.112H106.844V135.04H108.156V140.144C108.156 141.536 108.924 142.128 109.98 142.128C110.348 142.128 110.764 142.048 111.18 141.92L111.164 140.944ZM113.179 132.48H114.459V130.848H113.179V132.48ZM113.275 142H114.379V134.112H113.275V142ZM120.203 142.128C121.627 142.128 122.779 141.376 123.307 139.936L122.283 139.552C121.979 140.56 121.195 141.152 120.203 141.152C118.507 141.152 117.755 139.696 117.755 138.08C117.755 136.464 118.507 134.96 120.187 134.96C121.179 134.96 121.963 135.568 122.331 136.576L123.387 136.16C122.763 134.688 121.595 133.984 120.187 133.984C117.803 133.984 116.635 136 116.635 138.08C116.635 140.272 117.915 142.128 120.203 142.128ZM127.8 142.128C129.32 142.128 130.632 141.328 130.632 139.728C130.632 136.736 126.072 137.92 126.072 136.048C126.072 135.36 126.696 134.96 127.672 134.96C128.648 134.96 129.272 135.408 129.656 136.112L130.536 135.632C129.992 134.512 128.968 133.984 127.704 133.984C126.12 133.984 125 134.832 125 136.208C125 139.008 129.544 137.696 129.544 139.792C129.544 140.624 128.856 141.152 127.784 141.152C126.552 141.152 125.784 140.464 125.496 139.648L124.568 140.064C124.984 141.328 126.248 142.128 127.8 142.128Z" fill="#000B33"/>
<path d="M13.7319 131.296C13.639 131.202 13.5284 131.128 13.4065 131.077C13.2846 131.026 13.1539 131 13.0219 131C12.8899 131 12.7592 131.026 12.6373 131.077C12.5155 131.128 12.4049 131.202 12.3119 131.296L4.86192 138.756L1.73192 135.616C1.6354 135.523 1.52146 135.449 1.3966 135.4C1.27175 135.351 1.13843 135.327 1.00424 135.329C0.870064 135.331 0.737655 135.36 0.614576 135.414C0.491498 135.467 0.380161 135.544 0.286922 135.641C0.193684 135.737 0.12037 135.851 0.0711659 135.976C0.0219619 136.101 -0.00216855 136.234 0.000152918 136.368C0.00247438 136.503 0.0312022 136.635 0.0846957 136.758C0.138189 136.881 0.215401 136.993 0.311922 137.086L4.15192 140.926C4.24489 141.02 4.35549 141.094 4.47735 141.145C4.59921 141.195 4.72991 141.222 4.86192 141.222C4.99393 141.222 5.12464 141.195 5.2465 141.145C5.36836 141.094 5.47896 141.02 5.57192 140.926L13.7319 132.766C13.8334 132.672 13.9144 132.559 13.9698 132.432C14.0252 132.306 14.0539 132.169 14.0539 132.031C14.0539 131.893 14.0252 131.756 13.9698 131.63C13.9144 131.503 13.8334 131.389 13.7319 131.296Z" fill="#00BB98"/>
<path d="M28.8058 93.544C27.9898 93.544 27.1418 93.816 26.3898 94.52L27.0298 90.904H31.8938V89.848H26.1178L25.1098 95.608L26.2298 95.912C26.7898 95.096 27.6058 94.568 28.6778 94.568C30.2938 94.568 31.2538 95.752 31.2538 97.224C31.2538 98.744 30.1978 100.072 28.5498 100.072C27.0938 100.072 26.0858 99.08 25.8458 97.736L24.7578 97.912C25.0778 99.704 26.5338 101.128 28.5498 101.128C30.7738 101.128 32.4218 99.336 32.4218 97.224C32.4218 95.176 30.9018 93.544 28.8058 93.544ZM37.74 101.16C40.284 101.16 41.18 98.504 41.18 95.448C41.18 92.392 40.268 89.688 37.628 89.688C34.732 89.688 34.172 92.776 34.172 95.432C34.172 98.088 34.764 101.16 37.74 101.16ZM37.708 100.104C35.676 100.104 35.308 97.784 35.308 95.432C35.308 93.032 35.676 90.744 37.628 90.744C39.5 90.744 39.996 92.856 39.996 95.432C39.996 97.96 39.516 100.104 37.708 100.104ZM46.7556 101.16C49.2996 101.16 50.1956 98.504 50.1956 95.448C50.1956 92.392 49.2836 89.688 46.6436 89.688C43.7476 89.688 43.1876 92.776 43.1876 95.432C43.1876 98.088 43.7796 101.16 46.7556 101.16ZM46.7236 100.104C44.6916 100.104 44.3236 97.784 44.3236 95.432C44.3236 93.032 44.6916 90.744 46.6436 90.744C48.5156 90.744 49.0116 92.856 49.0116 95.432C49.0116 97.96 48.5316 100.104 46.7236 100.104ZM67.0727 101.176L65.4567 99.592C66.3527 98.584 66.8647 97.16 66.8647 95.432C66.8647 91.976 64.8167 89.688 61.7607 89.688C58.7047 89.688 56.6567 91.976 56.6567 95.432C56.6567 98.872 58.7047 101.16 61.7607 101.16C62.8967 101.16 63.8887 100.84 64.7047 100.264L66.3367 101.864L67.0727 101.176ZM61.7607 100.072C59.3447 100.072 57.7927 98.264 57.7927 95.432C57.7927 92.584 59.3447 90.776 61.7607 90.776C64.1767 90.776 65.7287 92.584 65.7287 95.432C65.7287 96.84 65.3447 98.008 64.6567 98.808L62.8487 97.032L62.0807 97.72L63.8887 99.48C63.2967 99.864 62.5767 100.072 61.7607 100.072ZM74.5956 93.112V96.744C74.5956 98.792 73.8116 100.152 72.2436 100.152C70.7396 100.152 70.5156 98.952 70.5156 97.672V93.112H69.4116V97.944C69.4116 99.896 70.1956 101.128 71.9876 101.128C73.0276 101.128 74.0356 100.712 74.5956 99.864V101H75.6996V93.112H74.5956ZM84.8291 96.664C84.8291 94.872 83.8211 92.984 81.4051 92.984C79.1171 92.984 77.9011 94.872 77.9011 97.096C77.9011 99.336 79.1331 101.128 81.5331 101.128C82.7491 101.128 83.6611 100.776 84.5891 99.8L83.8211 99.128C83.1011 99.896 82.4131 100.12 81.5491 100.12C79.9971 100.12 79.0371 99.08 79.0051 97.352H84.7811C84.8131 97.16 84.8291 96.888 84.8291 96.664ZM81.4051 93.912C82.8611 93.912 83.6771 94.888 83.7571 96.168C83.7571 96.312 83.7731 96.392 83.7731 96.424H79.0051C79.1011 95.032 79.9811 93.912 81.4051 93.912ZM90.4967 92.984C89.6967 92.984 88.7367 93.256 88.1607 94.296V93.112H87.0567V101H88.1607V96.6C88.1607 94.888 89.0567 93.976 90.2727 93.976C90.6087 93.976 90.9447 94.056 91.3127 94.216L91.8567 93.32C91.4247 93.08 90.9767 92.984 90.4967 92.984ZM93.3982 91.48H94.6782V89.848H93.3982V91.48ZM93.4942 101H94.5982V93.112H93.4942V101ZM103.798 96.664C103.798 94.872 102.79 92.984 100.374 92.984C98.0858 92.984 96.8698 94.872 96.8698 97.096C96.8698 99.336 98.1018 101.128 100.502 101.128C101.718 101.128 102.63 100.776 103.558 99.8L102.79 99.128C102.07 99.896 101.382 100.12 100.518 100.12C98.9658 100.12 98.0058 99.08 97.9738 97.352H103.75C103.782 97.16 103.798 96.888 103.798 96.664ZM100.374 93.912C101.83 93.912 102.646 94.888 102.726 96.168C102.726 96.312 102.742 96.392 102.742 96.424H97.9738C98.0698 95.032 98.9498 93.912 100.374 93.912ZM108.409 101.128C109.929 101.128 111.241 100.328 111.241 98.728C111.241 95.736 106.681 96.92 106.681 95.048C106.681 94.36 107.305 93.96 108.281 93.96C109.257 93.96 109.881 94.408 110.265 95.112L111.145 94.632C110.601 93.512 109.577 92.984 108.313 92.984C106.729 92.984 105.609 93.832 105.609 95.208C105.609 98.008 110.153 96.696 110.153 98.792C110.153 99.624 109.465 100.152 108.393 100.152C107.161 100.152 106.393 99.464 106.105 98.648L105.177 99.064C105.593 100.328 106.857 101.128 108.409 101.128Z" fill="#000B33"/>
<path d="M13.7319 90.2958C13.639 90.2021 13.5284 90.1277 13.4065 90.0769C13.2846 90.0261 13.1539 90 13.0219 90C12.8899 90 12.7592 90.0261 12.6373 90.0769C12.5155 90.1277 12.4049 90.2021 12.3119 90.2958L4.86192 97.7558L1.73192 94.6158C1.6354 94.5226 1.52146 94.4492 1.3966 94.4C1.27175 94.3508 1.13843 94.3267 1.00424 94.329C0.870064 94.3314 0.737655 94.3601 0.614576 94.4136C0.491498 94.4671 0.380161 94.5443 0.286922 94.6408C0.193684 94.7373 0.12037 94.8513 0.0711659 94.9761C0.0219619 95.101 -0.00216855 95.2343 0.000152918 95.3685C0.00247438 95.5027 0.0312022 95.6351 0.0846957 95.7581C0.138189 95.8812 0.215401 95.9926 0.311922 96.0858L4.15192 99.9258C4.24489 100.02 4.35549 100.094 4.47735 100.145C4.59921 100.195 4.72991 100.222 4.86192 100.222C4.99393 100.222 5.12464 100.195 5.2465 100.145C5.36836 100.094 5.47896 100.02 5.57192 99.9258L13.7319 91.7658C13.8334 91.6722 13.9144 91.5585 13.9698 91.432C14.0252 91.3055 14.0539 91.1689 14.0539 91.0308C14.0539 90.8927 14.0252 90.7561 13.9698 90.6296C13.9144 90.5031 13.8334 90.3894 13.7319 90.2958Z" fill="#00BB98"/>
</svg>
