<svg width="178" height="190" viewBox="0 0 178 190" fill="none" xmlns="http://www.w3.org/2000/svg">
<path d="M28.5979 19.128C30.5019 19.128 32.3419 18.04 32.3419 15.848C32.3419 14.456 31.5739 13.368 30.2939 12.936C31.1419 12.536 31.7499 11.672 31.7499 10.584C31.7499 8.84 30.3259 7.72 28.6139 7.72C27.0299 7.72 25.4459 8.744 25.4459 10.52C25.4459 11.624 26.0219 12.504 26.9019 12.936C25.6059 13.368 24.8219 14.44 24.8219 15.848C24.8219 18.04 26.6939 19.128 28.5979 19.128ZM28.6139 12.616C27.3979 12.616 26.5499 11.848 26.5499 10.616C26.5499 9.464 27.5099 8.776 28.6139 8.776C29.8139 8.776 30.6619 9.56 30.6619 10.664C30.6619 11.848 29.8139 12.616 28.6139 12.616ZM28.5979 18.072C27.1739 18.072 25.9259 17.304 25.9259 15.768C25.9259 14.312 27.0299 13.384 28.5979 13.384C30.1499 13.384 31.2539 14.312 31.2539 15.768C31.2539 17.304 30.0059 18.072 28.5979 18.072ZM37.6619 19.16C40.2059 19.16 41.1019 16.504 41.1019 13.448C41.1019 10.392 40.1899 7.688 37.5499 7.688C34.6539 7.688 34.0939 10.776 34.0939 13.432C34.0939 16.088 34.6859 19.16 37.6619 19.16ZM37.6299 18.104C35.5979 18.104 35.2299 15.784 35.2299 13.432C35.2299 11.032 35.5979 8.744 37.5499 8.744C39.4219 8.744 39.9179 10.856 39.9179 13.432C39.9179 15.96 39.4379 18.104 37.6299 18.104ZM46.6775 19.16C49.2215 19.16 50.1175 16.504 50.1175 13.448C50.1175 10.392 49.2055 7.688 46.5655 7.688C43.6695 7.688 43.1095 10.776 43.1095 13.432C43.1095 16.088 43.7015 19.16 46.6775 19.16ZM46.6455 18.104C44.6135 18.104 44.2455 15.784 44.2455 13.432C44.2455 11.032 44.6135 8.744 46.5655 8.744C48.4375 8.744 48.9335 10.856 48.9335 13.432C48.9335 15.96 48.4535 18.104 46.6455 18.104ZM62.5946 14.168H65.2826V14.52C65.2826 17.064 63.6026 18.072 61.6826 18.072C58.9146 18.072 57.7466 16.008 57.7466 13.352C57.7466 10.6 59.0746 8.776 61.7626 8.776C63.6186 8.776 64.7386 9.624 65.2986 11.144L66.3546 10.744C65.6186 8.824 64.1146 7.688 61.7626 7.688C58.3386 7.688 56.6106 10.088 56.6106 13.4C56.6106 16.728 58.3546 19.16 61.6026 19.16C63.3146 19.16 64.6746 18.488 65.2826 17.256L65.4426 19H66.3546V13.24H62.5946V14.168ZM69.5966 19H73.3566C75.6446 19 76.9246 17.88 76.9246 15.88C76.9246 14.392 76.2046 13.4 74.8766 13.064C75.8206 12.664 76.3486 11.784 76.3486 10.632C76.3486 8.872 75.1166 7.848 73.0206 7.848H69.5966V19ZM70.7326 12.712V8.904H73.0206C74.4126 8.904 75.2126 9.608 75.2126 10.824C75.2126 11.992 74.4766 12.712 73.2446 12.712H70.7326ZM70.7326 17.944V13.704H73.5806C74.9726 13.704 75.7726 14.472 75.7726 15.784C75.7726 17.176 74.8766 17.944 73.2766 17.944H70.7326ZM84.1747 19H87.1827C90.8787 19 92.8947 17.064 92.8947 13.512C92.8947 9.912 90.8307 7.848 87.1987 7.848H84.1747V19ZM85.3107 17.944V8.904H87.1827C90.2067 8.904 91.7427 10.44 91.7427 13.464C91.7427 16.472 90.2067 17.944 87.0867 17.944H85.3107ZM95.3045 9.48H96.5845V7.848H95.3045V9.48ZM95.4005 19H96.5045V11.112H95.4005V19ZM101.8 19.128C103.32 19.128 104.632 18.328 104.632 16.728C104.632 13.736 100.072 14.92 100.072 13.048C100.072 12.36 100.696 11.96 101.672 11.96C102.648 11.96 103.272 12.408 103.656 13.112L104.536 12.632C103.992 11.512 102.968 10.984 101.704 10.984C100.12 10.984 99.0001 11.832 99.0001 13.208C99.0001 16.008 103.544 14.696 103.544 16.792C103.544 17.624 102.856 18.152 101.784 18.152C100.552 18.152 99.7841 17.464 99.4961 16.648L98.5681 17.064C98.9841 18.328 100.248 19.128 101.8 19.128ZM106.869 19H107.973V16.68L109.781 14.76L112.533 19H113.845L110.533 14.072L113.397 11.112H111.909L107.973 15.288V7.848H106.869V19ZM123.211 19.16C125.515 19.16 126.811 17.96 126.811 16.088C126.811 14.536 126.107 13.64 123.627 12.696C121.867 12.024 121.099 11.48 121.099 10.456C121.099 9.512 121.931 8.712 123.099 8.712C124.059 8.712 124.875 9.224 125.355 10.088L126.315 9.496C125.643 8.312 124.539 7.688 123.131 7.688C121.243 7.688 119.963 8.808 119.963 10.504C119.963 11.96 120.747 12.76 123.003 13.608C124.971 14.36 125.659 14.984 125.659 16.184C125.659 17.288 124.843 18.136 123.227 18.136C121.723 18.136 120.635 17.224 120.427 15.784L119.291 16.056C119.595 17.928 121.147 19.16 123.211 19.16ZM132.378 10.968C131.258 10.968 130.362 11.4 129.77 12.168V11.112H128.666V22.264H129.77V17.944C130.346 18.68 131.226 19.128 132.378 19.128C134.682 19.128 135.882 17.4 135.882 15.048C135.882 12.584 134.57 10.968 132.378 10.968ZM132.218 18.152C130.554 18.152 129.674 16.84 129.674 15.048C129.674 13.176 130.634 11.944 132.218 11.944C133.818 11.944 134.778 13.176 134.778 15.048C134.778 16.84 133.898 18.152 132.218 18.152ZM140.902 10.984C139.558 10.984 138.534 11.496 137.686 12.6L138.486 13.272C139.126 12.392 139.894 11.96 140.886 11.96C142.214 11.96 142.934 12.712 142.934 14.088V14.456H141.318C139.766 14.456 138.918 14.6 138.31 14.952C137.734 15.304 137.414 15.912 137.414 16.712C137.414 18.232 138.422 19.128 140.134 19.128C141.382 19.128 142.342 18.664 142.966 17.784L143.03 19H144.038V14.088C144.038 12.12 142.886 10.984 140.902 10.984ZM140.454 18.216C139.27 18.216 138.518 17.656 138.518 16.776C138.518 16.328 138.662 15.976 138.95 15.752C139.334 15.448 139.958 15.352 141.414 15.352H142.934V15.464C142.934 17.144 141.974 18.216 140.454 18.216ZM149.641 19.128C151.065 19.128 152.217 18.376 152.745 16.936L151.721 16.552C151.417 17.56 150.633 18.152 149.641 18.152C147.945 18.152 147.193 16.696 147.193 15.08C147.193 13.464 147.945 11.96 149.625 11.96C150.617 11.96 151.401 12.568 151.769 13.576L152.825 13.16C152.201 11.688 151.033 10.984 149.625 10.984C147.241 10.984 146.073 13 146.073 15.08C146.073 17.272 147.353 19.128 149.641 19.128ZM161.063 14.664C161.063 12.872 160.055 10.984 157.639 10.984C155.351 10.984 154.135 12.872 154.135 15.096C154.135 17.336 155.367 19.128 157.767 19.128C158.983 19.128 159.895 18.776 160.823 17.8L160.055 17.128C159.335 17.896 158.647 18.12 157.783 18.12C156.231 18.12 155.271 17.08 155.239 15.352H161.015C161.047 15.16 161.063 14.888 161.063 14.664ZM157.639 11.912C159.095 11.912 159.911 12.888 159.991 14.168C159.991 14.312 160.007 14.392 160.007 14.424H155.239C155.335 13.032 156.215 11.912 157.639 11.912Z" fill="#000B33"/>
<path d="M13.732 8.2958C13.639 8.20207 13.5284 8.12768 13.4065 8.07691C13.2847 8.02614 13.154 8 13.022 8C12.8899 8 12.7592 8.02614 12.6374 8.07691C12.5155 8.12768 12.4049 8.20207 12.312 8.2958L4.86195 15.7558L1.73195 12.6158C1.63543 12.5226 1.52149 12.4492 1.39663 12.4C1.27178 12.3508 1.13846 12.3267 1.00428 12.329C0.870095 12.3314 0.737685 12.3601 0.614607 12.4136C0.491528 12.4671 0.380191 12.5443 0.286953 12.6408C0.193714 12.7373 0.1204 12.8513 0.0711964 12.9761C0.0219924 13.101 -0.00213803 13.2343 0.000183436 13.3685C0.0025049 13.5027 0.0312327 13.6351 0.0847262 13.7581C0.13822 13.8812 0.215431 13.9926 0.311953 14.0858L4.15195 17.9258C4.24492 18.0195 4.35552 18.0939 4.47738 18.1447C4.59924 18.1955 4.72994 18.2216 4.86195 18.2216C4.99397 18.2216 5.12467 18.1955 5.24653 18.1447C5.36839 18.0939 5.47899 18.0195 5.57195 17.9258L13.732 9.7658C13.8335 9.67216 13.9145 9.5585 13.9699 9.432C14.0253 9.30551 14.0539 9.1689 14.0539 9.0308C14.0539 8.8927 14.0253 8.75609 13.9699 8.62959C13.9145 8.50309 13.8335 8.38944 13.732 8.2958Z" fill="#00BB98"/>
<path d="M25.8778 183H27.0138V177.848H32.6458V176.792H27.0138V172.904H33.4458V171.848H25.8778V183ZM38.5905 174.984C37.7905 174.984 36.8305 175.256 36.2545 176.296V175.112H35.1505V183H36.2545V178.6C36.2545 176.888 37.1505 175.976 38.3665 175.976C38.7025 175.976 39.0385 176.056 39.4065 176.216L39.9505 175.32C39.5185 175.08 39.0705 174.984 38.5905 174.984ZM47.1572 178.664C47.1572 176.872 46.1492 174.984 43.7332 174.984C41.4452 174.984 40.2292 176.872 40.2292 179.096C40.2292 181.336 41.4612 183.128 43.8612 183.128C45.0772 183.128 45.9892 182.776 46.9172 181.8L46.1492 181.128C45.4292 181.896 44.7412 182.12 43.8772 182.12C42.3252 182.12 41.3652 181.08 41.3332 179.352H47.1092C47.1412 179.16 47.1572 178.888 47.1572 178.664ZM43.7332 175.912C45.1892 175.912 46.0052 176.888 46.0852 178.168C46.0852 178.312 46.1012 178.392 46.1012 178.424H41.3332C41.4292 177.032 42.3092 175.912 43.7332 175.912ZM55.6728 178.664C55.6728 176.872 54.6648 174.984 52.2488 174.984C49.9608 174.984 48.7448 176.872 48.7448 179.096C48.7448 181.336 49.9768 183.128 52.3768 183.128C53.5928 183.128 54.5048 182.776 55.4328 181.8L54.6648 181.128C53.9448 181.896 53.2568 182.12 52.3928 182.12C50.8408 182.12 49.8808 181.08 49.8488 179.352H55.6248C55.6568 179.16 55.6728 178.888 55.6728 178.664ZM52.2488 175.912C53.7048 175.912 54.5208 176.888 54.6008 178.168C54.6008 178.312 54.6168 178.392 54.6168 178.424H49.8488C49.9448 177.032 50.8248 175.912 52.2488 175.912ZM66.9795 183.16C69.2035 183.16 70.8515 182.088 71.6835 180.056L70.5955 179.656C69.9715 181.256 68.7235 182.072 66.9795 182.072C64.4835 182.072 63.0435 180.376 63.0435 177.4C63.0435 174.44 64.4995 172.776 67.0595 172.776C68.8195 172.776 70.0035 173.544 70.5955 175.144L71.6515 174.744C70.8675 172.712 69.2995 171.688 67.0595 171.688C63.8435 171.688 61.9075 173.816 61.9075 177.4C61.9075 181 63.8115 183.16 66.9795 183.16ZM78.6112 175.112V178.744C78.6112 180.792 77.8272 182.152 76.2592 182.152C74.7552 182.152 74.5312 180.952 74.5312 179.672V175.112H73.4272V179.944C73.4272 181.896 74.2112 183.128 76.0032 183.128C77.0432 183.128 78.0512 182.712 78.6112 181.864V183H79.7152V175.112H78.6112ZM85.0188 183.128C86.5388 183.128 87.8508 182.328 87.8508 180.728C87.8508 177.736 83.2908 178.92 83.2908 177.048C83.2908 176.36 83.9148 175.96 84.8908 175.96C85.8668 175.96 86.4908 176.408 86.8748 177.112L87.7548 176.632C87.2108 175.512 86.1868 174.984 84.9228 174.984C83.3388 174.984 82.2188 175.832 82.2188 177.208C82.2188 180.008 86.7628 178.696 86.7628 180.792C86.7628 181.624 86.0748 182.152 85.0028 182.152C83.7708 182.152 83.0028 181.464 82.7148 180.648L81.7868 181.064C82.2028 182.328 83.4668 183.128 85.0188 183.128ZM93.352 181.944C93 182.056 92.696 182.12 92.424 182.12C91.8 182.12 91.448 181.768 91.448 181V176.04H93.352V175.112H91.448V172.232L90.344 173.064V175.112H89.032V176.04H90.344V181.144C90.344 182.536 91.112 183.128 92.168 183.128C92.536 183.128 92.952 183.048 93.368 182.92L93.352 181.944ZM98.4728 183.128C100.729 183.128 102.265 181.368 102.265 179.048C102.265 176.712 100.713 174.984 98.4728 174.984C96.2168 174.984 94.6968 176.712 94.6968 179.048C94.6968 181.384 96.2168 183.128 98.4728 183.128ZM98.4728 182.152C96.7928 182.152 95.8008 180.84 95.8008 179.048C95.8008 177.272 96.7768 175.96 98.4728 175.96C100.153 175.96 101.161 177.256 101.161 179.048C101.161 180.808 100.169 182.152 98.4728 182.152ZM112.638 174.984C111.438 174.984 110.558 175.496 110.046 176.504C109.646 175.464 108.83 174.984 107.726 174.984C106.846 174.984 106.046 175.288 105.55 176.072V175.112H104.478L104.494 183H105.598V179.208C105.598 177.416 106.03 175.96 107.566 175.96C108.942 175.96 109.342 177.128 109.342 178.44V183H110.446V179.208C110.446 177.432 110.878 175.96 112.478 175.96C114.206 175.96 114.206 177.704 114.206 178.376V183H115.31V178.072C115.31 176.232 114.526 174.984 112.638 174.984ZM122.768 183H125.776C129.472 183 131.488 181.064 131.488 177.512C131.488 173.912 129.424 171.848 125.792 171.848H122.768V183ZM123.904 181.944V172.904H125.776C128.8 172.904 130.336 174.44 130.336 177.464C130.336 180.472 128.8 181.944 125.68 181.944H123.904ZM137.082 183.128C139.338 183.128 140.874 181.368 140.874 179.048C140.874 176.712 139.322 174.984 137.082 174.984C134.826 174.984 133.306 176.712 133.306 179.048C133.306 181.384 134.826 183.128 137.082 183.128ZM137.082 182.152C135.402 182.152 134.41 180.84 134.41 179.048C134.41 177.272 135.386 175.96 137.082 175.96C138.762 175.96 139.77 177.256 139.77 179.048C139.77 180.808 138.778 182.152 137.082 182.152ZM151.248 174.984C150.048 174.984 149.168 175.496 148.656 176.504C148.256 175.464 147.44 174.984 146.336 174.984C145.456 174.984 144.656 175.288 144.16 176.072V175.112H143.088L143.104 183H144.208V179.208C144.208 177.416 144.64 175.96 146.176 175.96C147.552 175.96 147.952 177.128 147.952 178.44V183H149.056V179.208C149.056 177.432 149.488 175.96 151.088 175.96C152.816 175.96 152.816 177.704 152.816 178.376V183H153.92V178.072C153.92 176.232 153.136 174.984 151.248 174.984ZM159.371 174.984C158.027 174.984 157.003 175.496 156.155 176.6L156.955 177.272C157.595 176.392 158.363 175.96 159.355 175.96C160.683 175.96 161.403 176.712 161.403 178.088V178.456H159.787C158.235 178.456 157.387 178.6 156.779 178.952C156.203 179.304 155.883 179.912 155.883 180.712C155.883 182.232 156.891 183.128 158.603 183.128C159.851 183.128 160.811 182.664 161.435 181.784L161.499 183H162.507V178.088C162.507 176.12 161.355 174.984 159.371 174.984ZM158.923 182.216C157.739 182.216 156.987 181.656 156.987 180.776C156.987 180.328 157.131 179.976 157.419 179.752C157.803 179.448 158.427 179.352 159.883 179.352H161.403V179.464C161.403 181.144 160.443 182.216 158.923 182.216ZM165.101 173.48H166.381V171.848H165.101V173.48ZM165.197 183H166.301V175.112H165.197V183ZM172.925 174.984C171.789 174.984 170.829 175.464 170.317 176.264V175.112H169.213V183H170.317V179.464C170.317 177.24 171.181 175.96 172.669 175.96C173.853 175.96 174.397 176.744 174.397 178.44V183H175.501V178.168C175.501 176.072 174.621 174.984 172.925 174.984Z" fill="#000B33"/>
<path d="M13.7319 172.296C13.639 172.202 13.5284 172.128 13.4065 172.077C13.2846 172.026 13.1539 172 13.0219 172C12.8899 172 12.7592 172.026 12.6373 172.077C12.5155 172.128 12.4049 172.202 12.3119 172.296L4.86192 179.756L1.73192 176.616C1.6354 176.523 1.52146 176.449 1.3966 176.4C1.27175 176.351 1.13843 176.327 1.00424 176.329C0.870064 176.331 0.737655 176.36 0.614576 176.414C0.491498 176.467 0.380161 176.544 0.286922 176.641C0.193684 176.737 0.12037 176.851 0.0711659 176.976C0.0219619 177.101 -0.00216855 177.234 0.000152918 177.368C0.00247438 177.503 0.0312022 177.635 0.0846957 177.758C0.138189 177.881 0.215401 177.993 0.311922 178.086L4.15192 181.926C4.24489 182.02 4.35549 182.094 4.47735 182.145C4.59921 182.195 4.72991 182.222 4.86192 182.222C4.99393 182.222 5.12464 182.195 5.2465 182.145C5.36836 182.094 5.47896 182.02 5.57192 181.926L13.7319 173.766C13.8334 173.672 13.9144 173.559 13.9698 173.432C14.0252 173.306 14.0539 173.169 14.0539 173.031C14.0539 172.893 14.0252 172.756 13.9698 172.63C13.9144 172.503 13.8334 172.389 13.7319 172.296Z" fill="#00BB98"/>
<path d="M29.6378 60.16C32.2458 60.16 33.6538 58.688 33.6538 55.888V48.848H32.5178V55.808C32.5178 58 31.5898 59.04 29.6378 59.04C27.7018 59.04 26.7738 58.016 26.7738 55.856V48.848H25.6378V55.968C25.6378 58.704 27.0458 60.16 29.6378 60.16ZM40.3312 51.984C39.1952 51.984 38.2352 52.464 37.7232 53.264V52.112H36.6192V60H37.7232V56.464C37.7232 54.24 38.5872 52.96 40.0752 52.96C41.2592 52.96 41.8032 53.744 41.8032 55.44V60H42.9072V55.168C42.9072 53.072 42.0272 51.984 40.3312 51.984ZM47.0748 60.128C47.4268 60.128 47.8268 60.032 48.1628 59.92L48.1468 58.976C47.9068 59.056 47.6348 59.12 47.3948 59.12C46.8668 59.12 46.6748 58.768 46.6748 58.224V48.848H45.5708V58.288C45.5708 59.52 46.1628 60.128 47.0748 60.128ZM49.8513 50.48H51.1313V48.848H49.8513V50.48ZM49.9473 60H51.0513V52.112H49.9473V60ZM62.107 51.984C60.907 51.984 60.027 52.496 59.515 53.504C59.115 52.464 58.299 51.984 57.195 51.984C56.315 51.984 55.515 52.288 55.019 53.072V52.112H53.947L53.963 60H55.067V56.208C55.067 54.416 55.499 52.96 57.035 52.96C58.411 52.96 58.811 54.128 58.811 55.44V60H59.915V56.208C59.915 54.432 60.347 52.96 61.947 52.96C63.675 52.96 63.675 54.704 63.675 55.376V60H64.779V55.072C64.779 53.232 63.995 51.984 62.107 51.984ZM67.3982 50.48H68.6782V48.848H67.3982V50.48ZM67.4942 60H68.5982V52.112H67.4942V60ZM74.7738 58.944C74.4218 59.056 74.1178 59.12 73.8458 59.12C73.2218 59.12 72.8698 58.768 72.8698 58V53.04H74.7738V52.112H72.8698V49.232L71.7658 50.064V52.112H70.4538V53.04H71.7658V58.144C71.7658 59.536 72.5338 60.128 73.5898 60.128C73.9578 60.128 74.3738 60.048 74.7898 59.92L74.7738 58.944ZM83.0947 55.664C83.0947 53.872 82.0867 51.984 79.6707 51.984C77.3827 51.984 76.1667 53.872 76.1667 56.096C76.1667 58.336 77.3987 60.128 79.7987 60.128C81.0147 60.128 81.9267 59.776 82.8547 58.8L82.0867 58.128C81.3667 58.896 80.6787 59.12 79.8147 59.12C78.2627 59.12 77.3027 58.08 77.2707 56.352H83.0467C83.0787 56.16 83.0947 55.888 83.0947 55.664ZM79.6707 52.912C81.1267 52.912 81.9427 53.888 82.0227 55.168C82.0227 55.312 82.0387 55.392 82.0387 55.424H77.2707C77.3667 54.032 78.2467 52.912 79.6707 52.912ZM90.8103 48.848V53.168C90.2183 52.4 89.3223 51.968 88.2023 51.968C86.0103 51.968 84.6983 53.584 84.6983 56.048C84.6983 58.4 85.8983 60.128 88.2023 60.128C89.3543 60.128 90.2343 59.68 90.8103 58.944V60H91.9143V48.848H90.8103ZM88.3623 59.152C86.6823 59.152 85.8023 57.84 85.8023 56.048C85.8023 54.176 86.7623 52.944 88.3623 52.944C89.9463 52.944 90.9063 54.176 90.9063 56.048C90.9063 57.84 90.0263 59.152 88.3623 59.152ZM98.2623 51.984C97.4623 51.984 96.5023 52.256 95.9263 53.296V52.112H94.8223V60H95.9263V55.6C95.9263 53.888 96.8223 52.976 98.0383 52.976C98.3743 52.976 98.7103 53.056 99.0783 53.216L99.6223 52.32C99.1903 52.08 98.7423 51.984 98.2623 51.984ZM108.883 60.16C111.187 60.16 112.483 58.96 112.483 57.088C112.483 55.536 111.779 54.64 109.299 53.696C107.539 53.024 106.771 52.48 106.771 51.456C106.771 50.512 107.603 49.712 108.771 49.712C109.731 49.712 110.547 50.224 111.027 51.088L111.987 50.496C111.315 49.312 110.211 48.688 108.803 48.688C106.915 48.688 105.635 49.808 105.635 51.504C105.635 52.96 106.419 53.76 108.675 54.608C110.643 55.36 111.331 55.984 111.331 57.184C111.331 58.288 110.515 59.136 108.899 59.136C107.395 59.136 106.307 58.224 106.099 56.784L104.963 57.056C105.267 58.928 106.819 60.16 108.883 60.16ZM119.408 52.112V55.744C119.408 57.792 118.624 59.152 117.056 59.152C115.552 59.152 115.328 57.952 115.328 56.672V52.112H114.224V56.944C114.224 58.896 115.008 60.128 116.8 60.128C117.84 60.128 118.848 59.712 119.408 58.864V60H120.512V52.112H119.408ZM127.144 51.968C126.024 51.968 125.128 52.4 124.536 53.168V52.112H123.432V63.264H124.536V58.944C125.112 59.68 125.992 60.128 127.144 60.128C129.448 60.128 130.648 58.4 130.648 56.048C130.648 53.584 129.336 51.968 127.144 51.968ZM126.984 59.152C125.32 59.152 124.44 57.84 124.44 56.048C124.44 54.176 125.4 52.944 126.984 52.944C128.584 52.944 129.544 54.176 129.544 56.048C129.544 57.84 128.664 59.152 126.984 59.152ZM136.644 51.968C135.524 51.968 134.628 52.4 134.036 53.168V52.112H132.932V63.264H134.036V58.944C134.612 59.68 135.492 60.128 136.644 60.128C138.948 60.128 140.148 58.4 140.148 56.048C140.148 53.584 138.836 51.968 136.644 51.968ZM136.484 59.152C134.82 59.152 133.94 57.84 133.94 56.048C133.94 54.176 134.9 52.944 136.484 52.944C138.084 52.944 139.044 54.176 139.044 56.048C139.044 57.84 138.164 59.152 136.484 59.152ZM145.52 60.128C147.776 60.128 149.312 58.368 149.312 56.048C149.312 53.712 147.76 51.984 145.52 51.984C143.264 51.984 141.744 53.712 141.744 56.048C141.744 58.384 143.264 60.128 145.52 60.128ZM145.52 59.152C143.84 59.152 142.848 57.84 142.848 56.048C142.848 54.272 143.824 52.96 145.52 52.96C147.2 52.96 148.208 54.256 148.208 56.048C148.208 57.808 147.216 59.152 145.52 59.152ZM154.981 51.984C154.181 51.984 153.221 52.256 152.645 53.296V52.112H151.541V60H152.645V55.6C152.645 53.888 153.541 52.976 154.757 52.976C155.093 52.976 155.429 53.056 155.797 53.216L156.341 52.32C155.909 52.08 155.461 51.984 154.981 51.984ZM161.649 58.944C161.297 59.056 160.993 59.12 160.721 59.12C160.097 59.12 159.745 58.768 159.745 58V53.04H161.649V52.112H159.745V49.232L158.641 50.064V52.112H157.329V53.04H158.641V58.144C158.641 59.536 159.409 60.128 160.465 60.128C160.833 60.128 161.249 60.048 161.665 59.92L161.649 58.944Z" fill="#000B33"/>
<path d="M13.7319 49.2958C13.639 49.2021 13.5284 49.1277 13.4065 49.0769C13.2846 49.0261 13.1539 49 13.0219 49C12.8899 49 12.7592 49.0261 12.6373 49.0769C12.5155 49.1277 12.4049 49.2021 12.3119 49.2958L4.86192 56.7558L1.73192 53.6158C1.6354 53.5226 1.52146 53.4492 1.3966 53.4C1.27175 53.3508 1.13843 53.3267 1.00424 53.329C0.870064 53.3314 0.737655 53.3601 0.614576 53.4136C0.491498 53.4671 0.380161 53.5443 0.286922 53.6408C0.193684 53.7373 0.12037 53.8513 0.0711659 53.9761C0.0219619 54.101 -0.00216855 54.2343 0.000152918 54.3685C0.00247438 54.5027 0.0312022 54.6351 0.0846957 54.7581C0.138189 54.8812 0.215401 54.9926 0.311922 55.0858L4.15192 58.9258C4.24489 59.0195 4.35549 59.0939 4.47735 59.1447C4.59921 59.1955 4.72991 59.2216 4.86192 59.2216C4.99393 59.2216 5.12464 59.1955 5.2465 59.1447C5.36836 59.0939 5.47896 59.0195 5.57192 58.9258L13.7319 50.7658C13.8334 50.6722 13.9144 50.5585 13.9698 50.432C14.0252 50.3055 14.0539 50.1689 14.0539 50.0308C14.0539 49.8927 14.0252 49.7561 13.9698 49.6296C13.9144 49.5031 13.8334 49.3894 13.7319 49.2958Z" fill="#00BB98"/>
<path d="M25.8778 142H27.0138V136.848H32.6458V135.792H27.0138V131.904H33.4458V130.848H25.8778V142ZM39.83 134.112V137.744C39.83 139.792 39.046 141.152 37.478 141.152C35.974 141.152 35.75 139.952 35.75 138.672V134.112H34.646V138.944C34.646 140.896 35.43 142.128 37.222 142.128C38.262 142.128 39.27 141.712 39.83 140.864V142H40.934V134.112H39.83ZM45.2936 142.128C45.6456 142.128 46.0456 142.032 46.3816 141.92L46.3656 140.976C46.1256 141.056 45.8536 141.12 45.6136 141.12C45.0856 141.12 44.8936 140.768 44.8936 140.224V130.848H43.7896V140.288C43.7896 141.52 44.3816 142.128 45.2936 142.128ZM49.6061 142.128C49.9581 142.128 50.3581 142.032 50.6941 141.92L50.6781 140.976C50.4381 141.056 50.1661 141.12 49.9261 141.12C49.3981 141.12 49.2061 140.768 49.2061 140.224V130.848H48.1021V140.288C48.1021 141.52 48.6941 142.128 49.6061 142.128ZM60.1016 142.16C62.4056 142.16 63.7016 140.96 63.7016 139.088C63.7016 137.536 62.9976 136.64 60.5176 135.696C58.7576 135.024 57.9896 134.48 57.9896 133.456C57.9896 132.512 58.8216 131.712 59.9896 131.712C60.9496 131.712 61.7656 132.224 62.2456 133.088L63.2056 132.496C62.5336 131.312 61.4296 130.688 60.0216 130.688C58.1336 130.688 56.8536 131.808 56.8536 133.504C56.8536 134.96 57.6376 135.76 59.8936 136.608C61.8616 137.36 62.5496 137.984 62.5496 139.184C62.5496 140.288 61.7336 141.136 60.1176 141.136C58.6136 141.136 57.5256 140.224 57.3176 138.784L56.1816 139.056C56.4856 140.928 58.0376 142.16 60.1016 142.16ZM69.1488 140.944C68.7968 141.056 68.4928 141.12 68.2208 141.12C67.5968 141.12 67.2448 140.768 67.2448 140V135.04H69.1488V134.112H67.2448V131.232L66.1408 132.064V134.112H64.8288V135.04H66.1408V140.144C66.1408 141.536 66.9088 142.128 67.9648 142.128C68.3328 142.128 68.7488 142.048 69.1648 141.92L69.1488 140.944ZM73.9958 133.984C72.6518 133.984 71.6278 134.496 70.7798 135.6L71.5798 136.272C72.2198 135.392 72.9878 134.96 73.9798 134.96C75.3078 134.96 76.0278 135.712 76.0278 137.088V137.456H74.4118C72.8598 137.456 72.0118 137.6 71.4038 137.952C70.8278 138.304 70.5078 138.912 70.5078 139.712C70.5078 141.232 71.5158 142.128 73.2278 142.128C74.4758 142.128 75.4358 141.664 76.0598 140.784L76.1238 142H77.1318V137.088C77.1318 135.12 75.9798 133.984 73.9958 133.984ZM73.5478 141.216C72.3638 141.216 71.6118 140.656 71.6118 139.776C71.6118 139.328 71.7558 138.976 72.0438 138.752C72.4278 138.448 73.0518 138.352 74.5078 138.352H76.0278V138.464C76.0278 140.144 75.0678 141.216 73.5478 141.216ZM83.0863 140.944C82.7343 141.056 82.4303 141.12 82.1583 141.12C81.5343 141.12 81.1823 140.768 81.1823 140V135.04H83.0863V134.112H81.1823V131.232L80.0783 132.064V134.112H78.7663V135.04H80.0783V140.144C80.0783 141.536 80.8463 142.128 81.9023 142.128C82.2703 142.128 82.6863 142.048 83.1023 141.92L83.0863 140.944ZM85.1013 132.48H86.3813V130.848H85.1013V132.48ZM85.1973 142H86.3013V134.112H85.1973V142ZM91.597 142.128C93.117 142.128 94.429 141.328 94.429 139.728C94.429 136.736 89.869 137.92 89.869 136.048C89.869 135.36 90.493 134.96 91.469 134.96C92.445 134.96 93.069 135.408 93.453 136.112L94.333 135.632C93.789 134.512 92.765 133.984 91.501 133.984C89.917 133.984 88.797 134.832 88.797 136.208C88.797 139.008 93.341 137.696 93.341 139.792C93.341 140.624 92.653 141.152 91.581 141.152C90.349 141.152 89.581 140.464 89.293 139.648L88.365 140.064C88.781 141.328 90.045 142.128 91.597 142.128ZM99.9301 140.944C99.5781 141.056 99.2741 141.12 99.0021 141.12C98.3781 141.12 98.0261 140.768 98.0261 140V135.04H99.9301V134.112H98.0261V131.232L96.9221 132.064V134.112H95.6101V135.04H96.9221V140.144C96.9221 141.536 97.6901 142.128 98.7461 142.128C99.1141 142.128 99.5301 142.048 99.9461 141.92L99.9301 140.944ZM101.945 132.48H103.225V130.848H101.945V132.48ZM102.041 142H103.145V134.112H102.041V142ZM108.969 142.128C110.393 142.128 111.545 141.376 112.073 139.936L111.049 139.552C110.745 140.56 109.961 141.152 108.969 141.152C107.273 141.152 106.521 139.696 106.521 138.08C106.521 136.464 107.273 134.96 108.953 134.96C109.945 134.96 110.729 135.568 111.097 136.576L112.153 136.16C111.529 134.688 110.361 133.984 108.953 133.984C106.569 133.984 105.401 136 105.401 138.08C105.401 140.272 106.681 142.128 108.969 142.128ZM116.566 142.128C118.086 142.128 119.398 141.328 119.398 139.728C119.398 136.736 114.838 137.92 114.838 136.048C114.838 135.36 115.462 134.96 116.438 134.96C117.414 134.96 118.038 135.408 118.422 136.112L119.302 135.632C118.758 134.512 117.734 133.984 116.47 133.984C114.886 133.984 113.766 134.832 113.766 136.208C113.766 139.008 118.31 137.696 118.31 139.792C118.31 140.624 117.622 141.152 116.55 141.152C115.318 141.152 114.55 140.464 114.262 139.648L113.334 140.064C113.75 141.328 115.014 142.128 116.566 142.128Z" fill="#000B33"/>
<path d="M13.7319 131.296C13.639 131.202 13.5284 131.128 13.4065 131.077C13.2846 131.026 13.1539 131 13.0219 131C12.8899 131 12.7592 131.026 12.6373 131.077C12.5155 131.128 12.4049 131.202 12.3119 131.296L4.86192 138.756L1.73192 135.616C1.6354 135.523 1.52146 135.449 1.3966 135.4C1.27175 135.351 1.13843 135.327 1.00424 135.329C0.870064 135.331 0.737655 135.36 0.614576 135.414C0.491498 135.467 0.380161 135.544 0.286922 135.641C0.193684 135.737 0.12037 135.851 0.0711659 135.976C0.0219619 136.101 -0.00216855 136.234 0.000152918 136.368C0.00247438 136.503 0.0312022 136.635 0.0846957 136.758C0.138189 136.881 0.215401 136.993 0.311922 137.086L4.15192 140.926C4.24489 141.02 4.35549 141.094 4.47735 141.145C4.59921 141.195 4.72991 141.222 4.86192 141.222C4.99393 141.222 5.12464 141.195 5.2465 141.145C5.36836 141.094 5.47896 141.02 5.57192 140.926L13.7319 132.766C13.8334 132.672 13.9144 132.559 13.9698 132.432C14.0252 132.306 14.0539 132.169 14.0539 132.031C14.0539 131.893 14.0252 131.756 13.9698 131.63C13.9144 131.503 13.8334 131.389 13.7319 131.296Z" fill="#00BB98"/>
<path d="M29.6378 101.16C32.2458 101.16 33.6538 99.688 33.6538 96.888V89.848H32.5178V96.808C32.5178 99 31.5898 100.04 29.6378 100.04C27.7018 100.04 26.7738 99.016 26.7738 96.856V89.848H25.6378V96.968C25.6378 99.704 27.0458 101.16 29.6378 101.16ZM40.3312 92.984C39.1952 92.984 38.2352 93.464 37.7232 94.264V93.112H36.6192V101H37.7232V97.464C37.7232 95.24 38.5872 93.96 40.0752 93.96C41.2592 93.96 41.8032 94.744 41.8032 96.44V101H42.9072V96.168C42.9072 94.072 42.0272 92.984 40.3312 92.984ZM47.0748 101.128C47.4268 101.128 47.8268 101.032 48.1628 100.92L48.1468 99.976C47.9068 100.056 47.6348 100.12 47.3948 100.12C46.8668 100.12 46.6748 99.768 46.6748 99.224V89.848H45.5708V99.288C45.5708 100.52 46.1628 101.128 47.0748 101.128ZM49.8513 91.48H51.1313V89.848H49.8513V91.48ZM49.9473 101H51.0513V93.112H49.9473V101ZM62.107 92.984C60.907 92.984 60.027 93.496 59.515 94.504C59.115 93.464 58.299 92.984 57.195 92.984C56.315 92.984 55.515 93.288 55.019 94.072V93.112H53.947L53.963 101H55.067V97.208C55.067 95.416 55.499 93.96 57.035 93.96C58.411 93.96 58.811 95.128 58.811 96.44V101H59.915V97.208C59.915 95.432 60.347 93.96 61.947 93.96C63.675 93.96 63.675 95.704 63.675 96.376V101H64.779V96.072C64.779 94.232 63.995 92.984 62.107 92.984ZM67.3982 91.48H68.6782V89.848H67.3982V91.48ZM67.4942 101H68.5982V93.112H67.4942V101ZM74.7738 99.944C74.4218 100.056 74.1178 100.12 73.8458 100.12C73.2218 100.12 72.8698 99.768 72.8698 99V94.04H74.7738V93.112H72.8698V90.232L71.7658 91.064V93.112H70.4538V94.04H71.7658V99.144C71.7658 100.536 72.5338 101.128 73.5898 101.128C73.9578 101.128 74.3738 101.048 74.7898 100.92L74.7738 99.944ZM83.0947 96.664C83.0947 94.872 82.0867 92.984 79.6707 92.984C77.3827 92.984 76.1667 94.872 76.1667 97.096C76.1667 99.336 77.3987 101.128 79.7987 101.128C81.0147 101.128 81.9267 100.776 82.8547 99.8L82.0867 99.128C81.3667 99.896 80.6787 100.12 79.8147 100.12C78.2627 100.12 77.3027 99.08 77.2707 97.352H83.0467C83.0787 97.16 83.0947 96.888 83.0947 96.664ZM79.6707 93.912C81.1267 93.912 81.9427 94.888 82.0227 96.168C82.0227 96.312 82.0387 96.392 82.0387 96.424H77.2707C77.3667 95.032 78.2467 93.912 79.6707 93.912ZM90.8103 89.848V94.168C90.2183 93.4 89.3223 92.968 88.2023 92.968C86.0103 92.968 84.6983 94.584 84.6983 97.048C84.6983 99.4 85.8983 101.128 88.2023 101.128C89.3543 101.128 90.2343 100.68 90.8103 99.944V101H91.9143V89.848H90.8103ZM88.3623 100.152C86.6823 100.152 85.8023 98.84 85.8023 97.048C85.8023 95.176 86.7623 93.944 88.3623 93.944C89.9463 93.944 90.9063 95.176 90.9063 97.048C90.9063 98.84 90.0263 100.152 88.3623 100.152ZM109.213 101.176L107.597 99.592C108.493 98.584 109.005 97.16 109.005 95.432C109.005 91.976 106.957 89.688 103.901 89.688C100.845 89.688 98.7973 91.976 98.7973 95.432C98.7973 98.872 100.845 101.16 103.901 101.16C105.037 101.16 106.029 100.84 106.845 100.264L108.477 101.864L109.213 101.176ZM103.901 100.072C101.485 100.072 99.9333 98.264 99.9333 95.432C99.9333 92.584 101.485 90.776 103.901 90.776C106.317 90.776 107.869 92.584 107.869 95.432C107.869 96.84 107.485 98.008 106.797 98.808L104.989 97.032L104.221 97.72L106.029 99.48C105.437 99.864 104.717 100.072 103.901 100.072ZM116.736 93.112V96.744C116.736 98.792 115.952 100.152 114.384 100.152C112.88 100.152 112.656 98.952 112.656 97.672V93.112H111.552V97.944C111.552 99.896 112.336 101.128 114.128 101.128C115.168 101.128 116.176 100.712 116.736 99.864V101H117.84V93.112H116.736ZM126.97 96.664C126.97 94.872 125.962 92.984 123.546 92.984C121.258 92.984 120.042 94.872 120.042 97.096C120.042 99.336 121.274 101.128 123.674 101.128C124.89 101.128 125.802 100.776 126.73 99.8L125.962 99.128C125.242 99.896 124.554 100.12 123.69 100.12C122.138 100.12 121.178 99.08 121.146 97.352H126.922C126.954 97.16 126.97 96.888 126.97 96.664ZM123.546 93.912C125.002 93.912 125.818 94.888 125.898 96.168C125.898 96.312 125.914 96.392 125.914 96.424H121.146C121.242 95.032 122.122 93.912 123.546 93.912ZM132.637 92.984C131.837 92.984 130.877 93.256 130.301 94.296V93.112H129.197V101H130.301V96.6C130.301 94.888 131.197 93.976 132.413 93.976C132.749 93.976 133.085 94.056 133.453 94.216L133.997 93.32C133.565 93.08 133.117 92.984 132.637 92.984ZM135.539 91.48H136.819V89.848H135.539V91.48ZM135.635 101H136.739V93.112H135.635V101ZM145.938 96.664C145.938 94.872 144.93 92.984 142.514 92.984C140.226 92.984 139.01 94.872 139.01 97.096C139.01 99.336 140.242 101.128 142.642 101.128C143.858 101.128 144.77 100.776 145.698 99.8L144.93 99.128C144.21 99.896 143.522 100.12 142.658 100.12C141.106 100.12 140.146 99.08 140.114 97.352H145.89C145.922 97.16 145.938 96.888 145.938 96.664ZM142.514 93.912C143.97 93.912 144.786 94.888 144.866 96.168C144.866 96.312 144.882 96.392 144.882 96.424H140.114C140.21 95.032 141.09 93.912 142.514 93.912ZM150.55 101.128C152.07 101.128 153.382 100.328 153.382 98.728C153.382 95.736 148.822 96.92 148.822 95.048C148.822 94.36 149.446 93.96 150.422 93.96C151.398 93.96 152.022 94.408 152.406 95.112L153.286 94.632C152.742 93.512 151.718 92.984 150.454 92.984C148.87 92.984 147.75 93.832 147.75 95.208C147.75 98.008 152.294 96.696 152.294 98.792C152.294 99.624 151.606 100.152 150.534 100.152C149.302 100.152 148.534 99.464 148.246 98.648L147.318 99.064C147.734 100.328 148.998 101.128 150.55 101.128Z" fill="#000B33"/>
<path d="M13.7319 90.2958C13.639 90.2021 13.5284 90.1277 13.4065 90.0769C13.2846 90.0261 13.1539 90 13.0219 90C12.8899 90 12.7592 90.0261 12.6373 90.0769C12.5155 90.1277 12.4049 90.2021 12.3119 90.2958L4.86192 97.7558L1.73192 94.6158C1.6354 94.5226 1.52146 94.4492 1.3966 94.4C1.27175 94.3508 1.13843 94.3267 1.00424 94.329C0.870064 94.3314 0.737655 94.3601 0.614576 94.4136C0.491498 94.4671 0.380161 94.5443 0.286922 94.6408C0.193684 94.7373 0.12037 94.8513 0.0711659 94.9761C0.0219619 95.101 -0.00216855 95.2343 0.000152918 95.3685C0.00247438 95.5027 0.0312022 95.6351 0.0846957 95.7581C0.138189 95.8812 0.215401 95.9926 0.311922 96.0858L4.15192 99.9258C4.24489 100.02 4.35549 100.094 4.47735 100.145C4.59921 100.195 4.72991 100.222 4.86192 100.222C4.99393 100.222 5.12464 100.195 5.2465 100.145C5.36836 100.094 5.47896 100.02 5.57192 99.9258L13.7319 91.7658C13.8334 91.6722 13.9144 91.5585 13.9698 91.432C14.0252 91.3055 14.0539 91.1689 14.0539 91.0308C14.0539 90.8927 14.0252 90.7561 13.9698 90.6296C13.9144 90.5031 13.8334 90.3894 13.7319 90.2958Z" fill="#00BB98"/>
</svg>
