<svg width="1600" height="201" viewBox="0 0 1600 201" fill="none" xmlns="http://www.w3.org/2000/svg">
<rect width="1600" height="201" fill="white"/>
<path d="M189.758 109.067C189.552 108.567 189.358 108.042 189.152 107.594L188.197 105.456L188.158 105.418C185.319 99.2717 182.287 93.0234 179.074 86.8775L178.945 86.6214C178.622 86.0197 178.299 85.3539 177.964 84.7393C177.551 84.0095 177.151 83.2284 176.493 82.4858C175.851 81.7088 175.044 81.0827 174.129 80.6529C173.214 80.223 172.214 80 171.202 80C170.19 80 169.19 80.223 168.275 80.6529C167.36 81.0827 166.553 81.7088 165.911 82.4858C165.305 83.2284 164.853 84.0095 164.44 84.7393C164.118 85.4051 163.795 86.0581 163.46 86.6599L163.331 86.9159C160.169 93.0618 157.085 99.3101 154.246 105.456L154.169 105.533C153.885 106.199 153.549 106.89 153.227 107.633C153.02 108.081 152.814 108.567 152.607 109.105C152.05 110.513 151.872 112.041 152.091 113.538C152.31 115.036 152.918 116.45 153.856 117.643C154.794 118.836 156.029 119.766 157.439 120.341C158.849 120.916 160.386 121.117 161.898 120.923C163.348 120.734 164.744 120.255 166.002 119.515C167.679 118.58 169.292 117.223 171.099 115.264C172.905 117.223 174.557 118.58 176.196 119.527C177.772 120.445 179.557 120.952 181.383 121C183.499 121.009 185.546 120.258 187.147 118.886C188.748 117.514 189.795 115.613 190.094 113.535C190.439 112.042 190.322 110.48 189.758 109.054V109.067ZM171.228 111.192C169.008 108.375 167.563 105.789 167.073 103.574C166.87 102.753 166.826 101.901 166.944 101.064C167.034 100.411 167.279 99.8351 167.615 99.3485C168.389 98.2346 169.744 97.5432 171.228 97.5432C171.933 97.5218 172.632 97.6744 173.262 97.9873C173.893 98.3001 174.435 98.7635 174.841 99.3357C175.177 99.8479 175.422 100.411 175.499 101.064C175.628 101.807 175.577 102.665 175.37 103.574C174.88 105.75 173.435 108.362 171.228 111.192ZM187.668 113.087C187.521 114.142 187.098 115.141 186.442 115.983C185.785 116.825 184.918 117.482 183.926 117.889C182.945 118.298 181.861 118.414 180.803 118.298C179.77 118.17 178.738 117.837 177.68 117.223C175.923 116.145 174.343 114.807 172.996 113.254C175.706 109.925 177.344 106.89 177.964 104.188C178.261 102.908 178.299 101.756 178.17 100.693C178.009 99.6856 177.631 98.7248 177.061 97.8761C176.41 96.9558 175.541 96.2083 174.531 95.6993C173.52 95.1902 172.4 94.9353 171.267 94.9568C168.879 94.9568 166.75 96.0579 165.46 97.8633C164.879 98.7098 164.504 99.6783 164.363 100.693C164.195 101.768 164.234 102.959 164.569 104.188C165.189 106.89 166.866 109.963 169.538 113.279C168.213 114.862 166.629 116.212 164.853 117.274C163.782 117.889 162.763 118.209 161.731 118.337C160.125 118.541 158.503 118.108 157.218 117.132C155.932 116.156 155.087 114.716 154.866 113.126C154.737 112.101 154.827 111.077 155.24 109.925C155.369 109.515 155.562 109.105 155.769 108.619C156.053 107.953 156.388 107.261 156.711 106.57L156.763 106.48C159.55 100.373 162.595 94.1373 165.757 88.0299L165.886 87.7738C166.208 87.1592 166.531 86.5062 166.866 85.8916C167.202 85.2386 167.563 84.6112 168.028 84.0991C168.43 83.6228 168.932 83.2398 169.5 82.977C170.067 82.7142 170.686 82.578 171.312 82.578C171.938 82.578 172.557 82.7142 173.124 82.977C173.691 83.2398 174.194 83.6228 174.596 84.0991C175.048 84.6112 175.422 85.2386 175.757 85.8916C176.08 86.5062 176.402 87.172 176.738 87.7738L176.867 88.0299C180.016 94.1373 183.061 100.373 185.9 106.48L185.939 106.519C186.274 107.185 186.558 107.927 186.881 108.567C187.087 109.067 187.293 109.464 187.423 109.886C187.668 111.038 187.797 112.063 187.668 113.087ZM205.63 110.91C204.658 110.925 203.695 110.721 202.812 110.316C201.93 109.91 201.151 109.312 200.533 108.567C199.145 106.98 198.408 104.932 198.468 102.831C198.447 100.684 199.208 98.6019 200.61 96.967C201.259 96.2124 202.067 95.608 202.977 95.1966C203.886 94.7851 204.876 94.5765 205.875 94.5855C206.816 94.5599 207.748 94.7722 208.583 95.2022C209.418 95.6322 210.129 96.266 210.65 97.0438L210.779 95.0336H214.547V110.501H210.766L210.637 108.247C210.1 109.078 209.359 109.758 208.482 110.225C207.606 110.691 206.624 110.927 205.63 110.91ZM206.611 107.223C207.359 107.223 208.017 107.018 208.637 106.647C209.205 106.237 209.669 105.699 210.03 105.046C210.353 104.393 210.521 103.612 210.521 102.742C210.571 101.985 210.423 101.229 210.09 100.547C209.758 99.8646 209.252 99.2796 208.624 98.8492C208.02 98.4758 207.322 98.2778 206.611 98.2778C205.899 98.2778 205.202 98.4758 204.598 98.8492C204.03 99.2589 203.566 99.7967 203.204 100.45C202.863 101.17 202.695 101.959 202.714 102.754C202.664 103.511 202.812 104.267 203.144 104.949C203.477 105.631 203.982 106.216 204.611 106.647C205.217 107.018 205.875 107.223 206.611 107.223ZM220.999 90.8595C220.999 91.3077 220.921 91.7174 220.715 92.0503C220.509 92.3704 220.225 92.6649 219.85 92.8698C219.476 93.0746 219.076 93.1514 218.663 93.1514C218.25 93.1514 217.837 93.0746 217.463 92.8698C217.109 92.6742 216.812 92.3922 216.599 92.0503C216.399 91.6856 216.301 91.2745 216.315 90.8595C216.315 90.3986 216.405 89.9889 216.599 89.6688C216.805 89.2847 217.102 89.0542 217.463 88.8493C217.837 88.6445 218.237 88.5548 218.663 88.5548C219.074 88.5454 219.48 88.642 219.842 88.835C220.204 89.028 220.509 89.3109 220.728 89.656C220.916 90.0293 221.009 90.4424 220.999 90.8595ZM216.611 110.45V95.008H220.715V110.475H216.599L216.611 110.45ZM231.683 99.054V99.1053C231.49 99.0156 231.232 98.9772 231.038 98.9388C230.78 98.8876 230.574 98.8876 230.328 98.8876C229.18 98.8876 228.315 99.2205 227.748 99.9119C227.128 100.616 226.844 101.602 226.844 102.87V110.462H222.728V94.9952H226.509L226.638 97.3383C227.051 96.5189 227.541 95.9043 228.238 95.4433C228.931 94.9955 229.747 94.7718 230.574 94.8031C230.87 94.8031 231.154 94.8287 231.4 94.88C231.529 94.9184 231.606 94.9184 231.683 94.9568V99.054ZM233.335 110.45V88.6573H237.439V96.9798C238.019 96.2372 238.677 95.661 239.503 95.2129C240.811 94.5768 242.296 94.3964 243.719 94.7007C245.143 95.005 246.422 95.7763 247.349 96.8902C248.74 98.4812 249.477 100.534 249.414 102.639C249.435 104.786 248.674 106.868 247.272 108.503C246.623 109.258 245.815 109.862 244.905 110.274C243.996 110.685 243.006 110.894 242.007 110.885C241.066 110.91 240.134 110.698 239.299 110.268C238.464 109.838 237.753 109.204 237.232 108.426L237.103 110.437L233.335 110.475V110.45ZM241.271 107.223C242.007 107.223 242.665 107.018 243.284 106.647C243.852 106.237 244.316 105.699 244.678 105.046C245.013 104.393 245.168 103.612 245.168 102.742C245.168 101.884 245.013 101.103 244.678 100.45C244.339 99.82 243.863 99.2732 243.284 98.8492C242.68 98.4758 241.983 98.2778 241.271 98.2778C240.56 98.2778 239.862 98.4758 239.258 98.8492C238.677 99.2589 238.226 99.7967 237.852 100.45C237.51 101.17 237.342 101.959 237.361 102.754C237.311 103.511 237.459 104.267 237.792 104.949C238.124 105.631 238.63 106.216 239.258 106.647C239.865 107.018 240.523 107.223 241.271 107.223ZM250.962 110.462V94.9952H254.743L254.872 97.0054C255.347 96.2349 256.021 95.6042 256.824 95.1788C257.627 94.7533 258.53 94.5485 259.44 94.5855C260.48 94.5676 261.503 94.8545 262.379 95.4102C263.256 95.9659 263.948 96.7657 264.369 97.7096C264.821 98.6827 265.066 99.8863 265.066 101.231V110.501H260.95V101.768C260.95 100.693 260.705 99.8479 260.214 99.2205C259.724 98.6059 259.053 98.273 258.201 98.273C257.582 98.273 257.04 98.401 256.562 98.6827C256.111 98.9772 255.737 99.3485 255.453 99.8735C255.166 100.404 255.023 101 255.04 101.602V110.462H250.962ZM267.118 110.462V88.6445H271.234V96.967C271.792 96.2202 272.517 95.6127 273.353 95.1926C274.188 94.7726 275.111 94.5515 276.048 94.5471C277.02 94.5329 277.983 94.7362 278.865 95.1419C279.748 95.5475 280.527 96.145 281.145 96.8902C282.526 98.4811 283.258 100.527 283.196 102.626C283.219 104.773 282.458 106.856 281.054 108.491C280.406 109.245 279.598 109.849 278.688 110.261C277.779 110.672 276.789 110.881 275.789 110.872C274.849 110.898 273.917 110.685 273.082 110.255C272.247 109.825 271.535 109.192 271.015 108.414L270.899 110.424L267.118 110.462ZM275.093 107.223C275.841 107.223 276.499 107.018 277.106 106.647C277.686 106.237 278.138 105.699 278.512 105.046C278.835 104.393 279.003 103.612 279.003 102.742C279.053 101.985 278.905 101.229 278.572 100.547C278.24 99.8646 277.734 99.2796 277.106 98.8492C276.502 98.4758 275.804 98.2778 275.093 98.2778C274.381 98.2778 273.684 98.4758 273.08 98.8492C272.512 99.2589 272.047 99.7967 271.686 100.45C271.326 101.163 271.157 101.957 271.196 102.754C271.145 103.511 271.294 104.267 271.626 104.949C271.959 105.631 272.464 106.216 273.093 106.647C273.699 107.018 274.318 107.223 275.093 107.223Z" fill="#FF385C"/>
<path d="M389.452 88.8062V98.6684H380.466V88.8062H376.2V112.348H380.466V102.806H389.452V112.348H393.719V88.8062H389.452Z" fill="#33475B"/>
<path d="M407.373 104.738C407.373 105.682 407.001 106.587 406.339 107.254C405.677 107.921 404.78 108.296 403.844 108.296C402.907 108.296 402.01 107.921 401.348 107.254C400.686 106.587 400.314 105.682 400.314 104.738V94.6548H396.267V104.738C396.267 106.762 397.065 108.702 398.484 110.133C399.904 111.564 401.829 112.367 403.836 112.367C405.844 112.367 407.769 111.564 409.188 110.133C410.608 108.702 411.405 106.762 411.405 104.738V94.6548H407.373V104.738Z" fill="#33475B"/>
<path d="M437.356 95.6935C437.356 93.6267 438.712 92.9714 440.199 92.9714C441.396 92.9714 442.979 93.89 444.013 95.0046L446.664 91.8569C445.341 90.0534 442.657 88.8062 440.46 88.8062C436.07 88.8062 432.895 91.3976 432.895 95.6935C432.895 103.664 442.561 101.136 442.561 105.596C442.561 106.972 441.235 108.187 439.718 108.187C437.324 108.187 436.549 107.007 435.449 105.76L432.508 108.843C434.39 111.171 436.71 112.353 439.49 112.353C443.66 112.353 447.015 109.73 447.015 105.63C447.015 96.7807 437.349 99.5301 437.349 95.6935" fill="#33475B"/>
<path d="M497.149 108.587C494.758 108.587 494.079 107.545 494.079 105.947V98.8789H497.795V95.2973H494.079V90.5715L489.975 92.4277V106.826C489.975 110.509 492.496 112.365 495.953 112.365C496.496 112.375 497.038 112.331 497.571 112.234L498.573 108.52C498.121 108.552 497.603 108.583 497.149 108.583" fill="#33475B"/>
<path d="M422.776 94.7733C420.771 94.7733 419.373 95.359 418.021 96.6968V88.9478H413.967V103.31C413.967 108.687 417.824 112.37 422.157 112.37C426.965 112.37 431.193 108.622 431.193 103.574C431.193 98.5888 427.301 94.7754 422.776 94.7754V94.7733ZM422.751 108.259C421.841 108.259 420.952 107.988 420.196 107.478C419.44 106.969 418.85 106.245 418.502 105.398C418.154 104.551 418.063 103.619 418.241 102.72C418.418 101.821 418.856 100.995 419.499 100.347C420.142 99.6985 420.962 99.257 421.854 99.0782C422.746 98.8993 423.67 98.9911 424.511 99.3419C425.351 99.6928 426.069 100.287 426.574 101.049C427.08 101.811 427.349 102.707 427.349 103.624C427.349 104.854 426.865 106.033 426.002 106.902C425.14 107.771 423.97 108.259 422.751 108.259Z" fill="#33475B"/>
<path d="M466.785 103.359C466.785 98.3022 462.564 94.5625 457.748 94.5625C453.415 94.5625 449.559 98.2453 449.559 103.622V117.993H453.612V110.233C454.962 111.569 456.363 112.157 458.365 112.157C462.89 112.157 466.783 108.346 466.783 103.359H466.785ZM462.947 103.308C462.947 104.225 462.677 105.121 462.172 105.883C461.667 106.646 460.948 107.24 460.108 107.59C459.268 107.941 458.343 108.033 457.451 107.854C456.559 107.675 455.74 107.234 455.097 106.586C454.454 105.937 454.016 105.112 453.838 104.212C453.661 103.313 453.752 102.381 454.1 101.534C454.448 100.687 455.037 99.9635 455.794 99.4542C456.55 98.9449 457.439 98.673 458.348 98.673C459.568 98.673 460.738 99.1614 461.6 100.031C462.462 100.9 462.947 102.079 462.947 103.308Z" fill="#33475B"/>
<path d="M479.878 94.3642V90.26C480.416 90.0066 480.872 89.6043 481.192 89.1C481.512 88.5958 481.683 88.0102 481.686 87.4115V87.3167C481.686 86.4786 481.356 85.6747 480.768 85.0821C480.18 84.4894 479.382 84.1564 478.55 84.1564H478.456C477.625 84.1564 476.827 84.4894 476.239 85.0821C475.651 85.6747 475.321 86.4786 475.321 87.3167V87.4115C475.324 88.0102 475.495 88.5958 475.815 89.1C476.135 89.6043 476.591 90.0066 477.129 90.26V94.3642C475.583 94.6027 474.126 95.2489 472.907 96.2372L461.741 87.4705C461.82 87.1814 461.862 86.8834 461.866 86.5835C461.867 85.8792 461.661 85.1904 461.274 84.6041C460.887 84.0178 460.336 83.5604 459.691 83.2899C459.045 83.0193 458.335 82.9476 457.65 83.0839C456.964 83.2203 456.334 83.5585 455.839 84.0558C455.344 84.553 455.007 85.1871 454.87 85.8777C454.732 86.5683 454.801 87.2844 455.068 87.9354C455.335 88.5865 455.787 89.1432 456.367 89.5353C456.948 89.9273 457.63 90.137 458.329 90.1378C458.94 90.1351 459.54 89.9709 460.068 89.6617L471.065 98.2851C470.077 99.7894 469.562 101.559 469.586 103.363C469.61 105.167 470.173 106.921 471.201 108.398L467.857 111.769C467.586 111.682 467.304 111.636 467.021 111.632C466.447 111.633 465.886 111.804 465.409 112.126C464.933 112.447 464.561 112.904 464.342 113.438C464.122 113.973 464.065 114.56 464.177 115.128C464.289 115.695 464.566 116.215 464.971 116.624C465.377 117.033 465.894 117.312 466.456 117.425C467.019 117.537 467.602 117.48 468.132 117.259C468.662 117.038 469.115 116.663 469.434 116.182C469.753 115.702 469.924 115.137 469.924 114.559C469.92 114.272 469.875 113.988 469.788 113.716L473.097 110.381C474.176 111.218 475.431 111.794 476.765 112.067C478.099 112.34 479.478 112.301 480.795 111.954C482.112 111.607 483.333 110.96 484.364 110.064C485.395 109.168 486.209 108.046 486.743 106.784C487.277 105.521 487.518 104.153 487.447 102.782C487.375 101.412 486.994 100.076 486.331 98.8776C485.668 97.6789 484.742 96.6489 483.624 95.8666C482.505 95.0843 481.224 94.5704 479.878 94.3642ZM478.507 107.861C477.601 107.86 476.717 107.589 475.965 107.081C475.212 106.574 474.626 105.853 474.281 105.01C473.935 104.167 473.844 103.24 474.021 102.345C474.198 101.45 474.634 100.628 475.275 99.9834C475.915 99.3385 476.73 98.8993 477.618 98.7214C478.506 98.5434 479.426 98.6347 480.262 98.9838C481.098 99.3328 481.813 99.9239 482.316 100.682C482.819 101.441 483.088 102.332 483.088 103.245C483.088 104.468 482.606 105.642 481.748 106.507C480.889 107.373 479.725 107.859 478.511 107.859" fill="#FF7A59"/>
<path d="M643.486 102.27C643.486 107.932 638.992 112.104 633.476 112.104C627.96 112.104 623.466 107.932 623.466 102.27C623.466 96.5678 627.96 92.4355 633.476 92.4355C638.992 92.4355 643.486 96.5678 643.486 102.27ZM639.104 102.27C639.104 98.7315 636.499 96.3107 633.476 96.3107C630.453 96.3107 627.848 98.7315 627.848 102.27C627.848 105.772 630.453 108.229 633.476 108.229C636.499 108.229 639.104 105.768 639.104 102.27Z" fill="#EA4335"/>
<path d="M665.082 102.27C665.082 107.932 660.587 112.104 655.071 112.104C649.556 112.104 645.061 107.932 645.061 102.27C645.061 96.5723 649.556 92.4355 655.071 92.4355C660.587 92.4355 665.082 96.5678 665.082 102.27ZM660.7 102.27C660.7 98.7315 658.095 96.3107 655.071 96.3107C652.048 96.3107 649.443 98.7315 649.443 102.27C649.443 105.772 652.048 108.229 655.071 108.229C658.095 108.229 660.7 105.768 660.7 102.27Z" fill="#FBBC05"/>
<path d="M685.777 93.0297V110.685C685.777 117.948 681.431 120.914 676.293 120.914C671.457 120.914 668.546 117.726 667.448 115.119L671.263 113.554C671.943 115.154 673.607 117.043 676.289 117.043C679.577 117.043 681.616 115.043 681.616 111.279V109.865H681.463C680.482 111.057 678.592 112.099 676.208 112.099C671.218 112.099 666.647 107.816 666.647 102.305C666.647 96.7541 671.218 92.4355 676.208 92.4355C678.588 92.4355 680.477 93.4775 681.463 94.6347H681.616V93.0341H685.777V93.0297ZM681.926 102.305C681.926 98.8424 679.582 96.3107 676.599 96.3107C673.576 96.3107 671.043 98.8424 671.043 102.305C671.043 105.732 673.576 108.229 676.599 108.229C679.582 108.229 681.926 105.732 681.926 102.305Z" fill="#4285F4"/>
<path d="M692.637 82.6812V111.501H688.363V82.6812H692.637Z" fill="#34A853"/>
<path d="M709.294 105.506L712.695 107.741C711.597 109.342 708.952 112.099 704.381 112.099C698.712 112.099 694.479 107.781 694.479 102.265C694.479 96.4171 698.748 92.4312 703.89 92.4312C709.069 92.4312 711.602 96.4925 712.43 98.6872L712.884 99.8045L699.544 105.249C700.566 107.222 702.154 108.229 704.381 108.229C706.612 108.229 708.16 107.147 709.294 105.506ZM698.825 101.968L707.742 98.3192C707.251 97.0911 705.776 96.2353 704.039 96.2353C701.812 96.2353 698.712 98.1729 698.825 101.968Z" fill="#EA4335"/>
<path d="M607.288 99.7115V95.5393H621.554C621.693 96.2664 621.765 97.1266 621.765 98.0577C621.765 101.188 620.897 105.059 618.099 107.816C615.377 110.61 611.899 112.099 607.292 112.099C598.753 112.099 591.573 105.245 591.573 96.8295C591.573 88.4142 598.753 81.5596 607.292 81.5596C612.016 81.5596 615.381 83.3863 617.91 85.7672L614.923 88.7113C613.109 87.0353 610.653 85.7318 607.288 85.7318C601.052 85.7318 596.175 90.6843 596.175 96.8295C596.175 102.975 601.052 107.927 607.288 107.927C611.332 107.927 613.636 106.327 615.111 104.872C616.308 103.693 617.096 102.008 617.406 99.7071L607.288 99.7115Z" fill="#4285F4"/>
<path d="M868.619 103.376L867.56 106.371H867.472C867.295 105.696 866.971 104.668 866.442 103.435L860.763 89.194H855.201V111.891H858.879V97.8852C858.879 97.0044 858.879 96.0061 858.85 94.7729C858.82 94.1562 858.762 93.6865 858.732 93.3341H858.82C858.997 94.215 859.203 94.8609 859.35 95.272L866.177 111.832H868.766L875.534 95.1252C875.681 94.7435 875.829 93.9801 875.976 93.3341H876.064C875.976 95.0077 875.917 96.5052 875.887 97.4154V111.803H879.801V89.1353H874.446L868.619 103.376ZM883.509 95.5363H887.334V111.803H883.509V95.5363ZM885.451 88.6655C884.803 88.6655 884.274 88.9004 883.832 89.3115C883.391 89.7226 883.156 90.2511 883.156 90.897C883.156 91.5136 883.391 92.0422 883.832 92.4532C884.274 92.8643 884.803 93.0698 885.451 93.0698C886.098 93.0698 886.657 92.8349 887.069 92.4532C887.511 92.0422 887.746 91.5136 887.746 90.897C887.746 90.2804 887.511 89.7519 887.069 89.3115C886.687 88.9004 886.128 88.6655 885.451 88.6655ZM900.899 95.3895C900.193 95.2426 899.457 95.1546 898.751 95.1546C897.015 95.1546 895.426 95.5363 894.102 96.2997C892.778 97.0631 891.718 98.1201 891.042 99.4414C890.335 100.792 889.982 102.348 889.982 104.139C889.982 105.696 890.335 107.076 891.012 108.338C891.689 109.571 892.631 110.57 893.896 111.245C895.102 111.92 896.515 112.273 898.104 112.273C899.928 112.273 901.488 111.891 902.724 111.186L902.753 111.157V107.633L902.606 107.751C902.047 108.162 901.399 108.514 900.752 108.72C900.075 108.955 899.457 109.072 898.928 109.072C897.398 109.072 896.191 108.632 895.338 107.663C894.455 106.723 894.014 105.431 894.014 103.816C894.014 102.143 894.455 100.821 895.367 99.8525C896.279 98.8836 897.486 98.3844 898.957 98.3844C900.193 98.3844 901.458 98.7955 902.606 99.6176L902.753 99.7351V96.0061L902.724 95.9767C902.223 95.7712 901.664 95.5363 900.899 95.3895ZM913.523 95.272C912.581 95.272 911.699 95.5656 910.933 96.1822C910.286 96.7108 909.845 97.4742 909.462 98.3844H909.433V95.5363H905.607V111.803H909.433V103.493C909.433 102.084 909.727 100.91 910.374 100.058C911.022 99.1772 911.846 98.7367 912.846 98.7367C913.199 98.7367 913.552 98.8248 913.994 98.8836C914.406 99.001 914.7 99.1185 914.906 99.2653L915.053 99.3827V95.5656L914.965 95.5363C914.7 95.3601 914.17 95.272 913.523 95.272ZM923.94 95.1839C921.262 95.1839 919.114 95.9767 917.613 97.5329C916.083 99.0891 915.347 101.233 915.347 103.934C915.347 106.459 916.112 108.514 917.584 110.012C919.055 111.48 921.056 112.243 923.557 112.243C926.176 112.243 928.265 111.451 929.766 109.865C931.296 108.279 932.032 106.165 932.032 103.552C932.032 100.968 931.325 98.9129 929.884 97.4154C928.501 95.918 926.47 95.1839 923.94 95.1839ZM927 107.692C926.294 108.602 925.175 109.043 923.792 109.043C922.409 109.043 921.291 108.602 920.497 107.633C919.702 106.723 919.32 105.402 919.32 103.728C919.32 101.996 919.732 100.675 920.497 99.7351C921.291 98.7955 922.38 98.3257 923.763 98.3257C925.117 98.3257 926.176 98.7661 926.941 99.6763C927.706 100.587 928.118 101.908 928.118 103.64C928.059 105.402 927.736 106.782 927 107.692ZM940.565 102.29C939.359 101.79 938.594 101.409 938.241 101.086C937.946 100.792 937.799 100.381 937.799 99.8525C937.799 99.4121 937.976 98.9716 938.417 98.678C938.858 98.3844 939.359 98.2376 940.094 98.2376C940.742 98.2376 941.418 98.355 942.066 98.5312C942.713 98.7074 943.302 98.9716 943.773 99.324L943.92 99.4414V95.8593L943.831 95.8299C943.39 95.6537 942.802 95.4775 942.095 95.3307C941.389 95.2133 940.742 95.1546 940.212 95.1546C938.388 95.1546 936.887 95.595 935.71 96.5639C934.533 97.4742 933.974 98.7074 933.974 100.146C933.974 100.91 934.091 101.585 934.356 102.143C934.621 102.701 935.004 103.229 935.533 103.67C936.063 104.081 936.828 104.55 937.887 104.991C938.77 105.373 939.447 105.666 939.859 105.901C940.271 106.136 940.536 106.4 940.742 106.606C940.889 106.841 940.977 107.134 940.977 107.516C940.977 108.602 940.153 109.131 938.476 109.131C937.829 109.131 937.152 109.014 936.357 108.749C935.563 108.485 934.827 108.103 934.209 107.663L934.062 107.545V111.274L934.15 111.304C934.709 111.568 935.386 111.744 936.21 111.95C937.034 112.097 937.77 112.214 938.417 112.214C940.389 112.214 942.007 111.774 943.155 110.805C944.332 109.865 944.95 108.661 944.95 107.105C944.95 106.019 944.655 105.05 944.008 104.316C943.155 103.611 942.095 102.877 940.565 102.29ZM955.043 95.1839C952.365 95.1839 950.217 95.9767 948.716 97.5329C947.215 99.0891 946.45 101.233 946.45 103.934C946.45 106.459 947.215 108.514 948.687 110.012C950.158 111.48 952.159 112.243 954.66 112.243C957.279 112.243 959.368 111.451 960.869 109.865C962.399 108.279 963.135 106.165 963.135 103.552C963.135 100.968 962.428 98.9129 960.987 97.4154C959.604 95.918 957.573 95.1839 955.043 95.1839ZM958.073 107.692C957.367 108.602 956.249 109.043 954.866 109.043C953.454 109.043 952.365 108.602 951.57 107.633C950.776 106.723 950.393 105.402 950.393 103.728C950.393 101.996 950.805 100.675 951.57 99.7351C952.365 98.7955 953.454 98.3257 954.837 98.3257C956.161 98.3257 957.25 98.7661 958.015 99.6763C958.78 100.587 959.192 101.908 959.192 103.64C959.192 105.402 958.809 106.782 958.073 107.692ZM983.586 98.678V95.5363H979.731V90.7209L979.613 90.7502L975.964 91.8366L975.876 91.866V95.5363H970.109V93.4809C970.109 92.5413 970.344 91.8073 970.756 91.3375C971.168 90.8677 971.786 90.6328 972.551 90.6328C973.081 90.6328 973.64 90.7502 974.258 91.0145L974.405 91.1026V87.7847L974.316 87.7553C973.787 87.5791 973.081 87.4617 972.168 87.4617C971.021 87.4617 970.02 87.7259 969.108 88.1664C968.196 88.6655 967.519 89.3408 967.019 90.2511C966.519 91.1319 966.254 92.1303 966.254 93.2754V95.5363H963.576V98.6487H966.254V111.803H970.109V98.678H975.876V107.046C975.876 110.482 977.494 112.214 980.731 112.214C981.261 112.214 981.82 112.126 982.35 112.038C982.909 111.92 983.321 111.774 983.556 111.656L983.586 111.627V108.485L983.438 108.602C983.203 108.749 982.997 108.867 982.644 108.955C982.35 109.043 982.085 109.072 981.879 109.072C981.114 109.072 980.584 108.896 980.202 108.456C979.849 108.045 979.672 107.369 979.672 106.371V98.678H983.586Z" fill="#737373"/>
<path d="M805.884 81.5596H823.922V99.5586H805.884V81.5596Z" fill="#F25022"/>
<path d="M825.804 81.5596H843.842V99.5586H825.804V81.5596Z" fill="#7FBA00"/>
<path d="M805.884 101.438H823.922V119.437H805.884V101.438Z" fill="#00A4EF"/>
<path d="M825.804 101.438H843.842V119.437H825.804V101.438Z" fill="#FFB900"/>
<path d="M1134.13 95.0317V97.1783H1134.2C1134.97 96.029 1136.25 94.6755 1139.1 94.6755C1141.31 94.6755 1143 95.801 1143.73 97.5012H1143.8C1144.42 96.6416 1145.13 95.991 1145.93 95.5303C1146.87 94.9842 1147.92 94.6708 1149.24 94.6708C1152.24 94.6708 1154.89 96.6179 1154.89 101.528V110.841H1150.32V102.179C1150.32 99.6905 1149.42 98.2516 1147.56 98.2516C1146.19 98.2516 1145.19 99.1159 1144.82 100.18C1144.68 100.545 1144.62 101.044 1144.62 101.462V110.846H1140.06V101.828C1140.06 99.7143 1139.2 98.2468 1137.35 98.2468C1135.88 98.2468 1134.96 99.3391 1134.58 100.275C1134.42 100.674 1134.36 101.134 1134.36 101.566V110.841H1129.8V95.0317H1134.13ZM1178.44 95.0317V98.0141H1178.57C1179.41 95.7346 1181.4 94.6755 1183.14 94.6755C1183.58 94.6755 1183.82 94.7088 1184.18 94.7752V98.9164C1183.76 98.8595 1183.37 98.8025 1182.82 98.8025C1180.85 98.8025 1179.47 99.8853 1179.12 101.581C1179.04 101.932 1179.02 102.312 1179.02 102.749V110.846H1174.33V95.0317H1178.44ZM1190.54 89.7935V94.7705H1194.5V98.7977H1190.54V104.739C1190.54 106.662 1191.06 107.593 1192.6 107.593C1193.33 107.593 1193.87 107.508 1194.33 107.398L1194.39 110.737C1193.77 110.955 1192.45 111.193 1191.1 111.193C1189.52 111.193 1188.21 110.675 1187.4 109.873C1186.48 108.956 1186.06 107.455 1186.06 105.318V89.7935H1190.54ZM1126.62 110.841H1122.07V89.7935H1126.62V110.841ZM1114.5 105.195C1114.5 105.484 1114.47 105.788 1114.39 106.05C1114.03 107.147 1112.83 108.073 1111.32 108.073C1110.07 108.073 1109.07 107.403 1109.07 105.983C1109.07 103.813 1111.61 103.21 1114.5 103.224V105.195H1114.5ZM1119.04 101.41C1119.04 97.8242 1117.41 94.6755 1111.91 94.6755C1109.09 94.6755 1106.85 95.4211 1105.63 96.086L1106.52 98.9639C1107.64 98.2991 1109.42 97.7529 1111.11 97.7529C1113.9 97.7482 1114.35 99.2394 1114.35 100.194V100.422C1108.27 100.412 1104.43 102.393 1104.43 106.429C1104.43 108.894 1106.38 111.202 1109.78 111.202C1111.88 111.202 1113.63 110.419 1114.68 109.16H1114.78C1114.78 109.16 1115.47 111.891 1119.3 110.846C1119.1 109.706 1119.03 108.495 1119.03 107.037V101.41H1119.04ZM1081.6 89.7935C1082.07 92.0208 1083.41 98.489 1083.41 98.489C1083.97 101.149 1084.48 103.936 1084.87 106.14H1084.94C1085.32 103.798 1085.92 101.581 1086.55 98.8357L1088.8 89.7935H1093.77L1095.87 99.0684C1096.42 101.647 1096.86 103.637 1097.21 106.035H1097.27C1097.65 103.613 1098.15 101.543 1098.69 98.8927L1100.71 89.7935H1105.48L1099.57 110.841C1095.8 111.615 1094.36 110.191 1093.84 107.93C1093.33 105.665 1092.32 101.357 1092.32 101.357C1091.8 98.9972 1091.39 97.335 1091.11 94.913H1091.04C1090.64 97.3113 1090.21 98.9924 1089.59 101.353L1087.11 110.846C1083.26 111.568 1081.93 110.499 1081.19 107.598C1080.55 105.114 1076.59 89.7982 1076.59 89.7982H1081.6V89.7935ZM1166.76 105.195C1166.76 105.484 1166.74 105.788 1166.65 106.05C1166.3 107.147 1165.09 108.073 1163.59 108.073C1162.33 108.073 1161.33 107.403 1161.33 105.983C1161.33 103.813 1163.87 103.21 1166.77 103.224V105.195H1166.76ZM1171.3 101.41C1171.3 97.8242 1169.67 94.6755 1164.18 94.6755C1161.35 94.6755 1159.11 95.4211 1157.89 96.086L1158.78 98.9639C1159.9 98.2991 1161.68 97.7529 1163.37 97.7529C1166.15 97.7482 1166.61 99.2394 1166.61 100.194V100.422C1160.54 100.412 1156.69 102.393 1156.69 106.429C1156.69 108.894 1158.65 111.202 1162.05 111.202C1164.14 111.202 1165.89 110.419 1166.94 109.16H1167.04C1167.04 109.16 1167.74 111.891 1171.57 110.846C1171.36 109.706 1171.3 108.495 1171.3 107.037V101.41Z" fill="#041E42"/>
<path d="M1212.91 103.593C1213.36 104.361 1213.33 105.219 1212.85 105.611L1204.59 111.319C1203.73 111.81 1202.44 111.215 1201.71 109.97C1200.98 108.72 1201.11 107.327 1201.97 106.836L1211.12 102.64C1211.69 102.422 1212.47 102.824 1212.91 103.593ZM1223.79 103.593C1224.24 102.824 1225.01 102.427 1225.59 102.636L1234.74 106.831C1235.6 107.322 1235.73 108.715 1235 109.965C1234.26 111.21 1232.97 111.8 1232.11 111.314L1223.85 105.606C1223.38 105.219 1223.34 104.356 1223.79 103.593ZM1218.35 106.687C1219.25 106.687 1219.99 107.143 1220.09 107.743L1220.98 117.652C1220.98 118.633 1219.82 119.437 1218.35 119.437C1216.9 119.437 1215.73 118.633 1215.73 117.652L1216.61 107.743C1216.71 107.143 1217.45 106.687 1218.35 106.687ZM1223.85 95.3904L1232.11 89.6775C1232.97 89.1866 1234.26 89.7767 1235 91.0264C1235.73 92.2761 1235.6 93.6696 1234.74 94.1605L1225.59 98.3608C1225.01 98.5691 1224.24 98.1724 1223.79 97.4037C1223.34 96.6351 1223.38 95.7772 1223.85 95.3904ZM1211.12 98.3608L1201.97 94.1605C1201.11 93.6696 1200.98 92.2761 1201.71 91.0264C1202.44 89.7767 1203.74 89.1866 1204.59 89.6775L1212.85 95.3904C1213.33 95.7722 1213.36 96.6351 1212.91 97.4037C1212.47 98.1724 1211.69 98.5691 1211.12 98.3608ZM1216.61 93.253L1215.73 83.3448C1215.73 82.3629 1216.89 81.5596 1218.35 81.5596C1219.82 81.5596 1220.98 82.3629 1220.98 83.3448L1220.09 93.253C1219.99 93.8481 1219.25 94.3093 1218.35 94.3093C1217.45 94.3093 1216.71 93.8481 1216.61 93.253ZM1237.23 111.279V111.031H1237.46C1237.53 111.031 1237.58 111.081 1237.58 111.155C1237.58 111.225 1237.53 111.279 1237.46 111.279H1237.23ZM1237.04 111.73C1237.04 111.755 1237.06 111.78 1237.09 111.78H1237.19C1237.22 111.78 1237.24 111.755 1237.24 111.73V111.448H1237.4L1237.52 111.745C1237.53 111.765 1237.55 111.78 1237.57 111.78H1237.68C1237.72 111.78 1237.74 111.745 1237.73 111.711C1237.68 111.621 1237.64 111.527 1237.59 111.433C1237.67 111.408 1237.78 111.334 1237.78 111.155C1237.78 110.967 1237.63 110.858 1237.47 110.858H1237.09C1237.07 110.858 1237.04 110.882 1237.04 110.907V111.73ZM1236.64 111.319C1236.64 110.917 1236.97 110.59 1237.38 110.59C1237.78 110.59 1238.12 110.912 1238.12 111.319C1238.12 111.721 1237.79 112.048 1237.38 112.048C1236.96 112.048 1236.64 111.721 1236.64 111.319ZM1236.46 111.319C1236.46 111.815 1236.87 112.221 1237.38 112.221C1237.88 112.221 1238.29 111.815 1238.29 111.319C1238.29 110.823 1237.88 110.416 1237.38 110.416C1236.87 110.416 1236.46 110.823 1236.46 111.319Z" fill="#FFC124"/>
<path d="M1417.96 116.934L1427.68 106.169L1417.96 95.4028H1428.21L1433.03 100.632L1437.66 95.4028H1447.56L1437.89 106.125L1447.69 116.934H1437.4L1432.63 111.661L1427.9 116.934H1417.96Z" fill="#FF6600"/>
<path d="M1417.96 90.5762H1406.95V95.4027H1417.96V102.677H1406.95V109.353H1417.96V116.934H1398.86V83.0166H1417.96V90.5762Z" fill="#FF6600"/>
<path d="M1390.8 83.0166V96.8971H1390.72C1388.93 94.8762 1386.7 94.174 1384.12 94.174C1378.82 94.174 1374.83 97.7233 1373.43 102.416C1371.83 97.2453 1367.71 94.0771 1361.61 94.0771C1356.65 94.0771 1352.73 96.2718 1350.69 99.8481V95.4032H1340.43V90.5772H1351.62V83.0166H1331.29V116.934H1340.43V102.677H1349.54C1349.27 103.724 1349.13 104.845 1349.13 106.029C1349.13 113.104 1354.61 118.068 1361.61 118.068C1367.49 118.068 1371.37 115.345 1373.42 110.38H1365.59C1364.53 111.872 1363.72 112.315 1361.61 112.315C1359.15 112.315 1357.03 110.202 1357.03 107.698H1372.98C1373.67 113.318 1378.11 118.164 1384.21 118.164C1386.84 118.164 1389.24 116.89 1390.72 114.738H1390.8V116.933H1398.86V83.0166H1390.8ZM1357.29 102.778C1357.8 100.624 1359.49 99.2157 1361.61 99.2157C1363.94 99.2157 1365.54 100.58 1365.97 102.778C1366.15 102.778 1357.29 102.778 1357.29 102.778ZM1385.92 111.77C1382.95 111.77 1381.1 109.042 1381.1 106.194C1381.1 103.15 1382.71 100.222 1385.92 100.222C1389.24 100.222 1390.57 103.15 1390.57 106.194C1390.57 109.081 1389.16 111.77 1385.92 111.77Z" fill="#652C8F"/>
</svg>
